<svg width="196" height="165" viewBox="0 0 196 165" fill="none" xmlns="http://www.w3.org/2000/svg">
  <path fill-rule="evenodd" clip-rule="evenodd" d="M172.115 14.9379L177.279 13.456L179.854 13.665L182.673 15.0103L185.57 15.6614L188.236 15.5677L190.412 17.2157L192.803 22.3689L194.234 33.7096L195.903 38.9297L185.554 45.8381L181.424 44.7984L179.021 43.2254L173.101 44.241L170.673 45.1897L168.891 46.9342L167.782 50.3776L167.045 53.939L161.404 69.8862L160.884 72.5043L161.597 75.7897L160.295 78.5257L136.431 87.6771L133.867 89.3278L131.225 90.5658L124.627 91.1206L120.441 94.9499L118.788 100.87L122.116 103.123L126.886 101.74L129.695 101.43L132.382 102.062L133.623 104.723L134.805 110.436L134.885 113.188L132.294 118.055L131.962 120.684L133.5 122.817L136.083 122.843L137.428 122.431L140.681 128.141L148.196 138.215L153.895 140.49L166.391 142.829L173.077 143.086L178.721 144.978L178.364 147.567L176.47 149.786L173.766 151.447L165.11 154.84L163.484 160.226L164.357 163.112L162.237 164.471L159.182 163.313L156.455 161.922L144.101 162.852L139.623 161.003L137.785 156.584L138.489 151.444L138.473 146.278L136.74 141.465L133.307 138.287L128.789 139.439L118.683 140.168L114.717 138.769L111.638 134.83L106.775 135.562L101.785 135.275L96.8863 133.222L92.1995 131.909L87.4134 131.813L87.6251 130.781L87.5527 128.624L87.6733 127.536L88.3942 125.108L89.6322 122.929L96.5728 116.608L97.2856 114.82L95.5036 113.724L94.4987 113.408L92.6765 112.315L90.5166 110.007L89.3991 108.241L87.6171 103.718L86.7515 103.08L84.605 102.844L81.2446 103.115L79.9664 101.963L81.0409 97.1125L83.9003 92.9106L84.5729 91.0455L84.9293 89.1027L85.8431 86.5972L86.0387 83.8557L84.873 79.1019L84.0048 76.7839L80.3871 76.3766L77.6082 78.2578L72.7257 78.247L72.6292 76.2105L72.104 74.273L71.5037 73.9916L68.2585 74.4713L66.3961 75.1546L65.6271 74.8491L64.8499 74.2542L63.7968 72.5499L64.4345 71.2958L65.2626 70.2051L65.6511 68.8224L65.5949 61.437L62.331 57.3369L57.3681 56.7608L52.9786 55.2762L52.3301 52.8457L52.4293 50.0989L51.4324 47.8801L49.5137 46.5L47.4074 45.396L45.545 43.9971L44.859 41.1325L44.9554 38.0669L44.6071 35.9766L42.7125 35.1754L37.6585 33.798L32.9957 33.1335L28.3732 34.0446L24.4286 36.108L22.065 39.6398L20.7144 43.5978L19.8462 45.128L18.4474 44.308L18.099 43.1959L18.107 41.998L17.5711 40.6126L13.6292 33.5434L12.6644 31.1477L11.0057 29.3068L4.76185 29.1513L0.648407 26.5895L0.479614 21.431L1.12809 16.0286L2.2295 13.9357L10.5769 12.6601L16.2044 12.5422L21.3602 13.1827L33.4164 12.6414L34.8983 14.0858L36.2677 18.2126L38.4142 21.8463L40.2096 23.0147L42.1845 23.8106L43.9747 23.6739L46.4293 22.2697L47.3833 23.5185L48.5168 24.5475L51.6414 24.8101L55.8701 23.8374L59.619 21.8275L63.1081 19.0219L63.9495 17.6847L64.5819 16.1117L65.2706 15.0156L66.2407 14.1286L67.594 13.5391L68.0067 12.2743L68.079 11.5695L90.9158 14.2519L93.8234 14.2492L98.0011 13.0621L99.4187 12.9683L116.057 14.9272L117.716 14.8039L118.26 14.5735L119.109 14.0134L120.007 13.231L120.551 12.5851L122.692 13.1747L130.126 15.64L136.975 12.6494L138.165 10.6423L139.087 8.49579L140.513 7.43998L145.928 5.17829L149.742 4.16265L157.127 1.16134L160.632 0.260918L163.904 1.26046L165.927 4.37168L167.977 12.4056L168.73 14.4207L172.115 14.9379Z" fill="#3B75A8"/>
</svg>