<svg width="131" height="163" viewBox="0 0 131 163" fill="none"
    xmlns="http://www.w3.org/2000/svg">
    <path fill-rule="evenodd" clip-rule="evenodd" d="M99.3957 42.1553L101.258 41.472L104.503 40.9923L105.104 41.2737L105.629 43.2111L105.725 45.2477L110.608 45.2584L113.387 43.3772L117.004 43.7846L117.873 46.1025L119.038 50.8564L118.843 53.5978L117.929 56.1034L117.572 58.0462L116.9 59.9113L114.04 64.1132L112.966 68.9635L114.244 70.1158L117.605 69.8451L119.751 70.081L120.617 70.7187L122.399 75.2421L123.516 77.0081L125.676 79.3154L127.498 80.4087L128.503 80.725L130.285 81.8209L129.572 83.6084L122.632 89.9299L121.394 92.1085L120.673 94.5363L120.552 95.6243L120.625 97.7815L120.413 98.8133L114.504 101.268L113.062 101.552L111.717 100.879L110.552 100.108L105.313 102.517L97.2974 110.904L94.213 115.503L92.0907 117.823L89.2904 119.104L84.6088 119.388L82.2453 124.442L81.7442 130.426L81.9693 137.102L84.2042 143.169L87.7923 147.461L88.3498 152.95L86.147 158.164L82.5454 162.12L80.9188 162.471L77.6549 161.686L76.1327 160.911L72.7 156.79L66.4079 155.98L62.1257 152.387L63.7604 150.184L67.0805 149.361L68.2141 146.365L66.9922 136.823L68.4901 130.718L66.96 119.611L58.9261 111.014L52.969 109.433L47.5264 107.332L45.6077 104.69L43.0566 102.661L37.5283 100.71L34.9932 98.9955L33.3988 96.3934L33.7471 93.5583L35.221 90.9348L35.3416 87.904L32.5574 86.5775L21.5355 90.1255L12.3386 97.0071L6.9389 97.4761L1.5446 92.8776L0.354736 88.8366L0.922875 84.9456L2.16893 81.1055L4.61558 78.1604L8.23324 77.2493L12.6468 75.001L16.1439 74.1622L15.8518 71.0028L13.9572 66.0319L13.172 65.0001L12.9121 63.7782L13.3435 62.3123L13.448 60.7849L13.0595 58.1963L11.398 53.0672L11.8938 36.3483L11.1247 28.4966L12.0385 24.8896L18.0545 20.7307L31.8204 15.54L34.6851 12.8281L37.2844 5.10501L39.1468 1.65889L42.7243 0.597719L46.6287 0.544071L50.5706 7.61329L51.1066 8.9987L51.0985 10.1965L51.4469 11.3087L52.8457 12.1287L53.714 10.5985L55.0646 6.6405L57.4281 3.10861L61.3727 1.04522L65.9953 0.134127L70.658 0.7987L75.7121 2.17606L77.6066 2.97731L77.955 5.06753L77.8586 8.13314L78.5445 10.9978L80.407 12.3967L82.5133 13.5007L84.4319 14.8807L85.4289 17.0996L85.3297 19.8463L85.9782 22.2769L90.3676 23.7615L95.3305 24.3376L98.5944 28.4376L98.6507 35.823L98.2622 37.2058L97.4341 38.2964L96.7963 39.5505L97.8495 41.2549L98.6266 41.8498L99.3957 42.1553Z" fill="#D6B429"/>
</svg>