<svg width="166" height="180" viewBox="0 0 166 180" fill="none" xmlns="http://www.w3.org/2000/svg">
  <path fill-rule="evenodd" clip-rule="evenodd" d="M107.799 10.9698L108.825 11.4603L109.862 12.3713L111.816 14.7269L119.635 21.9032L120.211 22.2677L120.997 22.5732L121.297 22.6027L121.618 22.3776L122.511 21.9274L123.408 21.6353L125.351 21.3995L126.284 21.4075L128.395 21.8604L130.266 22.7688L133.691 25.3575L135.221 27.0483L137.472 30.7973L138.817 32.44L141.692 34.1095L162.329 40.2488L165.078 40.5704L165.006 41.2752L164.593 42.54L163.24 43.1295L162.27 44.0165L161.581 45.1126L160.949 46.6856L160.108 48.0228L156.618 50.8284L152.87 52.8383L148.641 53.811L145.516 53.5484L144.383 52.5194L143.429 51.2706L140.974 52.6748L139.184 52.8115L137.209 52.0156L135.414 50.8472L133.267 47.2135L131.898 43.0867L130.416 41.6423L118.36 42.1836L113.204 41.5431L107.576 41.661L99.229 42.9366L98.1276 45.0295L97.4791 50.4319L97.6479 55.5904L101.761 58.1522L108.005 58.3077L109.664 60.1486L110.629 62.5443L106.724 62.598L103.147 63.6591L101.284 67.1052L98.685 74.8283L95.8204 77.5402L82.0545 82.7309L76.0384 86.8899L75.1247 90.4968L75.8937 98.3485L75.398 115.067L77.0594 120.196L77.448 122.785L77.3435 124.313L76.912 125.778L77.172 127L77.9571 128.032L79.8517 133.003L80.1438 136.162L76.6467 137.001L72.2332 139.25L68.6155 140.161L66.1689 143.106L64.9228 146.946L64.3547 150.837L65.5445 154.878L70.9389 159.476L68.235 163.63L61.8867 166.232L59.6437 165.262L58.0975 163.142L55.4151 161.178L52.3977 159.822L46.6952 158.702L41.7805 161.599L40.446 164.16L40.0413 167.028L37.8869 168.185L35.0945 167.213L29.1026 167.13L27.7895 171.396L29.1348 173.454L29.2313 175.729L27.3045 177.835L24.7373 179.199L22.138 178.875L18.0647 174.587L15.3206 172.966L9.58867 171.409L9.49217 169.182L11.6199 166.867L12.8687 165.889L13.142 164.407L12.188 162.512L10.5185 161.272L6.37297 161.199L4.44625 160.663L0.868755 158.922L2.09074 155.347L2.81157 151.633L2.56774 148.822L3.0715 146.161L0.367676 141.246L3.34484 126.92L7.887 124.79L13.7101 124.787L14.1871 124.945L14.8758 125.701L15.3206 125.886L16.5855 125.248L19.903 122.643L21.7654 120.824L22.1701 118.214L23.5877 116.831L26.0665 117.487L28.3978 116.603L27.5242 111.857L23.2152 108.333L20.5274 107.066L18.9812 105.134L20.2434 102.617L21.953 97.9572L22.4702 95.8751L22.0173 93.4499L21.2724 91.1293L20.8114 87.0024L19.6699 82.9774L17.5234 78.7381L17.912 73.9359L16.2371 69.8547L13.7584 36.7812L15.058 28.3561L15.5109 28.2811L17.1884 27.453L20.8945 24.1676L25.6564 18.5268L27.4063 18.1891L35.5742 19.6951L38.3853 19.7112L40.8372 18.9153L69.323 1.64698L71.9947 0.451825L74.6825 0.186532L94.5448 3.02441L96.7047 3.85778L97.605 4.55186L99.4434 6.31784L101.603 7.66576L104.251 9.75591L105.392 10.3026L107.718 10.9324L107.799 10.9698Z" fill="#C9235F"/>
</svg>