<svg width="201" height="251" viewBox="0 0 201 251" fill="none" xmlns="http://www.w3.org/2000/svg">
  <path fill-rule="evenodd" clip-rule="evenodd" d="M97.7307 14.8295L100.159 13.3771L101.343 11.2601L102.817 9.34134L104.84 8.67408L106.226 10.3998L105.933 12.8947L104.792 15.2824L104.524 16.7536L104.54 18.2649L104.232 19.503L103.747 20.5963L102.889 23.6673L102.418 26.8937L104.993 31.4145L106.807 36.4363L106.15 42.2487L105.389 45.2098L105.025 48.2406L107.383 61.149L107.091 67.1999L103.578 69.0087L98.2318 67.2696L92.6311 68.6764L89.8201 73.6849L90.3373 104.486L87.6817 116.96L84.2167 124.477L83.5789 132.101L86.0952 134.998L89.6111 136.161L93.0277 134.014L95.7718 130.603L110.661 123.844L112.298 123.437L113.965 123.834L115.211 124.52L116.143 124.262L117.017 123.909L118.215 124.659L119.04 125.919L120.742 125.766L122.288 124.774L125.504 124.187L128.709 125.434L129.981 126.53L131.608 126.838L135.722 125.814L137.544 125.688L138.959 124.9L139.559 122.995L140.936 121.628L142.651 121.526L144.329 122.312L146.189 122.43L150.634 121.754L152.505 123.33L153.646 125.64L160.448 128.572L165.089 129.584L177.022 128.762L178.236 128.065L179.541 127.752L185.337 128.743L188.317 129.764L191.994 133.374L191.597 138.827L189.638 144.83L191.12 147.263L194.212 148.493L200.212 158.065L200.906 170.279L198.503 168.714L195.759 168.862L194.601 169.791L192.623 172.034L191.798 173.283L189.791 174.894L187.071 175.122L184.375 175.85L170.821 181.641L165.622 182.558L157.792 182.574L155.68 181.837L154.683 179.034L154.571 175.904L155.032 169.773L153.786 167.104L151.291 165.512L148.499 160.42L147.421 154.458L142.788 151.65L137.08 151.475L113.924 156.192L103.163 161.039L101.884 166.08L106.855 169.853L112.499 172.235L118.483 173.187L119.82 173.192L120.87 173.774L121.511 175.186L122.532 175.837L124.684 176.488L125.64 178.785L126.377 182.022L126.578 185.24L122.824 190.029L126.021 194.062L127.739 199.277L125.632 200.968L120.085 202.546L114.83 205.089L109.39 204.339L106.903 205.231L105.577 210.526L105.998 216.508L105.633 219.281L106.078 221.953L109.771 226.79L112.158 232.198L110.216 237.412L107.957 239.076L105.285 239.961L96.2006 241.893L93.4485 242.828L92.6231 245.591L92.5802 248.785L91.6101 250.932L86.2667 250.634L84.3721 248.935L85.5619 243.053L86.055 237.273L84.3641 235.413L82.3462 233.883L81.1484 231.126L80.8322 228.103L81.328 222.181L84.281 217.094L93.4002 211.931L93.5128 210.489L95.4797 208.476L96.088 207.407L96.2327 206.022L96.2086 203.01L98.816 188.772L98.6794 186.8L93.6414 185.259L84.1604 179.015L76.2177 176.879L68.09 178.096L46.6573 178.664L42.5118 178.184L33.7436 174.138L26.7709 169.773L19.6053 168.947L19.0478 169.515L19.0425 169.521L18.9487 169.515L18.2118 169.649L17.5659 169.54L15.6714 167.731L1.62947 147.828L0.463818 145.655L0.327148 143.817L1.89745 139.516L2.39054 138.299L3.32309 134.697L8.763 125.38L10.4887 123.563L14.5111 121.143L15.4597 120.176L16.017 118.447L15.6285 116.864L14.6665 115.395L12.8282 113.418L12.4959 113.219L12.2306 112.951L11.7831 112.104L11.5338 111.317L11.0783 106.772L11.4347 105.459L12.3029 104.312L13.6374 102.926L14.9666 100.265L14.6022 97.5266L12.6513 91.6607L12.6915 88.1823L14.8032 77.6536L14.026 57.6814L14.3502 56.8372L31.4819 43.9021L36.552 39.0249L49.0611 19.2698L51.5318 2.0256L52.2178 1.86486L58.1695 1.70941L63.2557 2.54284L65.9676 1.21906L68.8081 0.616119L71.2145 2.51066L73.5861 4.85007L78.4446 7.72008L83.7719 9.72727L86.6071 10.4186L89.335 11.4128L91.9344 13.235L94.7508 14.5829L97.7307 14.8295Z" fill="#C9235F"/>
</svg>