<svg width="207" height="189" viewBox="0 0 207 189" fill="none"
    xmlns="http://www.w3.org/2000/svg">
    <path fill-rule="evenodd" clip-rule="evenodd" d="M158.942 19.3734L159.762 19.1536L164.288 16.5972L165.794 16.281L170.053 17.2108L171.462 17.519L176.69 20.5471L187.688 31.041L200.476 45.1258L206.848 56.898L206.819 56.9194L202.909 60.0279L196.821 63.5437L189.194 63.5464L181.557 61.6705L180.246 60.4325L179.04 58.9506L177.647 58.4415L176.173 58.0824L174.482 57.86L170.822 57.868L169.672 58.8649L169.3 60.8854L169.195 63.0131L168.319 66.328L166.352 66.8505L163.3 65.642L157.6 66.3628L152.653 69.1712L151.761 71.4168L153.138 85.172L150.815 89.5346L148.004 90.7968L145.083 91.6114L127.439 93.3211L123.478 96.4671L120.558 101.197L116.444 106.398L112.743 108.928L112.274 114.202L113.853 120.119L114.161 126.389L110.249 130.548L86.3077 131.542L74.7847 129.632L71.8959 139.239L71.2876 176.774L69.7414 177.765L68.0398 177.918L67.2144 176.659L66.0166 175.908L65.143 176.262L64.2104 176.519L62.9643 175.833L61.2975 175.437L59.6602 175.844L44.7715 182.602L42.0275 186.014L38.6108 188.16L35.0949 186.997L32.5787 184.1L33.2164 176.476L36.6814 168.96L39.337 156.486L38.8198 125.684L41.6309 120.676L47.2315 119.269L52.5776 121.008L56.0908 119.199L56.3829 113.149L54.0247 100.24L54.3891 97.2094L55.1502 94.2483L55.8067 88.4359L53.9925 83.4141L51.4173 78.8933L51.889 75.6669L52.7465 72.5959L53.2315 71.5026L53.5397 70.2645L53.5236 68.7532L53.7915 67.282L54.9331 64.8943L55.2252 62.3994L53.8398 60.6737L51.8166 61.3409L50.3427 63.2597L49.1582 65.3767L46.7304 66.8291L43.7505 66.5826L40.9341 65.2346L38.3348 63.4124L35.6068 62.4182L32.7716 61.7269L27.4443 59.7197L22.5859 56.8497L20.2142 54.5103L17.8078 52.6157L14.9673 53.2187L12.2554 54.5424L7.16924 53.709L1.21753 53.8645L0.531494 54.0252L0.796787 52.1762L0.96028 32.9008L6.02767 32.7373L8.38318 32.2844L10.5698 31.1964L22.894 19.3412L26.5626 16.7177L30.8046 15.0322L40.1355 12.7357L55.7263 8.89823L58.2373 8.62764L60.0327 9.43955L61.7987 11.1358L63.5807 11.9344L68.1309 12.2104L76.0576 10.7687L87.2777 11.2698L89.9762 10.7526L90.874 10.3667L93.2777 8.64099L94.363 7.34939L95.6761 4.38283L96.5738 3.18505L98.7524 2.08096L110.324 0.0604183L112.872 0.61508L135.047 9.46369L157.219 18.3069L157.932 18.7088L158.425 19.1456L158.942 19.3734Z" fill="#C9235F"/>
</svg>