<svg width="224" height="224" viewBox="0 0 224 224" fill="none" xmlns="http://www.w3.org/2000/svg">
  <path fill-rule="evenodd" clip-rule="evenodd" d="M102.814 1.84536L140.966 1.64169L164.647 7.67918L173.303 11.2245L184.201 17.9292L187.813 20.8019L189.352 21.5737L193.958 22.6938L196.557 22.4741L197.667 22.2838L199.31 21.1449L200.615 20.877L204.565 22.2785L205.457 22.7742L205.754 23.3129L205.787 23.7577L205.926 24.0605L206.55 24.1731L206.84 23.9801L207.188 23.5647L207.673 23.1789L208.418 23.0743L209.198 23.5138L209.779 24.2213L210.356 24.6259L211.101 24.1731L212.379 24.5482L215.133 24.6474L215.104 24.7948L213.266 40.1872L214.675 45.2761L218.132 49.1859L222.358 52.3265L223.031 57.2572L221.061 62.1397L217.62 66.9687L208.989 75.1741L210.602 87.1767L206.99 114.135L208.844 122.123L208.423 125.647L203.737 135.037L203.297 138.164L205.371 138.824L207.995 138.446L211.184 139.488L213.475 142.128L214.9 144.941L215.257 147.86L207.338 157.737L204.109 163.566L201.955 165.854L200.312 168.453L199.88 175.209L200.285 181.919L197.897 187.399L193.015 191.092L174.53 197.615L170.092 202.51L169.026 208.896L169.543 215.572L168.685 218.34L166.847 220.741L164.449 222.67L161.413 223.52L158.467 223.836L152.953 223.281L152.264 220.92L151.731 215.191L152.741 196.888L152.224 194.163L150.565 192.046L142.37 183.725L138.549 178.545L134.224 173.92L129.229 170.013L118.47 164.739L107.611 167.623L103.806 167.031L101.74 164.319L104.463 151.97L103.999 145.201L94.5822 121.861L92.2106 109.065L92.1303 103.48L91.6426 100.015L90.1151 96.9095L88.4939 94.3798L88.1053 91.5581L87.9928 88.3289L86.7869 82.0101L85.7498 78.9659L81.2638 74.6006L75.9043 70.9293L74.2348 65.7092L72.8039 54.3685L70.4136 49.2153L68.2376 47.5673L65.5713 47.661L62.6745 47.0099L59.8554 45.6646L57.2801 45.4556L52.1162 46.9375L48.7317 46.4204L47.9787 44.4052L45.9287 36.3713L43.9055 33.2601L40.6335 32.2605L37.1284 33.161L29.743 36.1623L25.9297 37.1779L20.514 39.4396L19.0883 40.4954L18.1665 42.6419L16.9767 44.649L10.1272 47.6397L2.69361 45.1743L0.55249 44.5847L13.9995 28.6161L16.6229 26.1051L18.1289 25.1297L18.9624 24.8349L19.359 24.8939L19.6752 24.8349L20.2996 24.1838L20.664 23.3772L20.9641 21.4129L21.2964 20.5742L22.6791 19.2262L37.5384 10.8467L40.8077 9.46923L78.9111 1.24241L81.0334 0.784186L88.5796 0.170513L102.814 1.84536Z" fill="#C9235F"/>
</svg>