<svg width="174" height="187" viewBox="0 0 174 187" fill="none" xmlns="http://www.w3.org/2000/svg">
  <path fill-rule="evenodd" clip-rule="evenodd" d="M152.819 15.619L158.647 15.5895L160.057 15.3537L158.757 23.7788L161.236 56.8523L162.91 60.9336L162.522 65.7357L164.668 69.975L165.81 74L166.271 78.1269L167.016 80.4475L167.469 82.8727L166.952 84.9549L165.242 89.6149L163.98 92.1313L165.526 94.0634L168.214 95.3309L172.523 98.8547L173.396 103.601L171.065 104.485L168.586 103.828L167.169 105.211L166.764 107.821L164.902 109.641L161.584 112.245L160.319 112.883L159.874 112.698L159.186 111.943L158.709 111.785L152.885 111.787L148.343 113.918L145.366 128.244L148.07 133.158L147.566 135.819L147.81 138.63L147.089 142.344L145.867 145.919L144.605 148.312L143.016 149.848L137.48 153.345L135.891 155.352L135.017 157.734L133.551 164.959L132.774 166.666L131.772 168.011L130.563 169.064L129.164 169.914L122.596 172.454L121.908 172.81L121.222 172.947L119.925 172.819L119.075 172.912L113.925 174.4L112.161 174.394L110.419 174.016L105.285 172.165L103.634 171.991L102.08 172.585L101.123 173.727L99.6924 176.696L98.7438 177.948L97.9506 178.435L96.0641 179.135L95.2709 179.689L94.6385 180.726L94.5259 181.739V182.763L94.2097 183.838L93.0601 184.891L89.4719 186.107L88.258 180.802L82.25 170.656L78.9057 166.277L78.2116 154.063L72.2117 144.491L69.1192 143.261L67.6373 140.828L69.5962 134.825L69.9928 129.372L66.3162 125.762L63.3363 124.741L57.54 123.75L56.235 124.063L55.021 124.76L43.0881 125.583L38.4468 124.57L31.6456 121.638L30.504 119.328L28.6335 117.752L24.1878 118.428L22.3281 118.31L20.6505 117.525L18.9355 117.626L17.5581 118.993L16.9578 120.898L15.5429 121.686L13.7207 121.812L9.60729 122.836L7.98066 122.528L6.70778 121.432L3.50281 120.186L0.287109 120.772L0.895418 83.2372L3.7842 73.6303L15.3071 75.5409L39.248 74.5467L43.1604 70.3877L42.8523 64.1171L41.2739 58.2002L41.7428 52.9265L45.4436 50.3968L49.557 45.1954L52.4779 40.4657L56.4386 37.3196L74.0821 35.6099L77.003 34.7953L79.8141 33.5331L82.1374 29.1705L80.76 15.4154L81.6524 13.1697L86.5992 10.3613L92.2991 9.64048L95.3513 10.849L97.3182 10.3265L98.1945 7.01163L98.299 4.88392L98.6715 2.86338L99.8211 1.86652L103.482 1.85847L105.173 2.08091L106.646 2.44002L108.04 2.94915L109.246 4.43106L110.556 5.66907L118.193 7.5449L125.82 7.54221L131.908 4.02641L135.818 0.917877L135.848 0.896484L137.791 4.48732L142.429 9.85755L145.272 12.5132L147.813 14.4131L150.203 15.3323L152.819 15.619Z" fill="#3B75A8"/>
</svg>