<svg width="314" height="72" viewBox="0 0 314 72" fill="none" xmlns="http://www.w3.org/2000/svg">
<path fill-rule="evenodd" clip-rule="evenodd" d="M1.43994 15.2704L33.8399 5.19043L64.7999 18.1504L35.2799 31.1104L1.43994 15.2704Z" fill="#00FF47"/>
<path d="M0 52.4857V18.7969L32.76 35.5729V70.3489L22.1112 64.3945V41.4265L10.6488 35.4721V58.4401L0 52.4857Z" fill="#00FF47"/>
<path d="M66.1824 21.3906L36 35.9418V71.0706L66.4488 54.309V33.1266L51.228 41.4066V49.2762L57.312 45.9282V48.441L45.8928 55.1442V41.7378L66.4488 30.2034L66.1824 21.3906Z" fill="#285D2D"/>
<path d="M24.48 18.8711H40.68" stroke="#00FF47" stroke-width="2.16" stroke-miterlimit="10" stroke-linecap="square"/>
<path d="M24.03 19.2715H44.5068" stroke="#666665" stroke-width="4.8" stroke-miterlimit="10" stroke-linecap="square"/>
<path d="M24.2095 17.7297L38.0787 0.929688L48.8845 9.32969L42.817 17.7297H24.2095Z" fill="#F2F2F2"/>
<path d="M94.0428 56.6904H71.7192V21.1224H93.9492V29.9208H79.8624V34.9752H92.0304V42.51H79.8624V47.7516H94.0428V56.6904ZM120.197 56.6904H99.2307V21.1224H107.327V47.7516H120.197V56.6904ZM147.192 56.6904H124.868V21.1224H147.098V29.9208H133.012V34.9752H145.18V42.51H133.012V47.7516H147.192V56.6904ZM174.329 56.6904H158.604C154.345 56.6904 152.193 54.6312 152.193 50.466V27.6276C152.193 23.2752 154.345 21.1224 158.604 21.1224H174.235V30.0612H161.693C160.757 30.0612 160.289 30.5292 160.289 31.4652V46.3476C160.289 47.2836 160.757 47.7516 161.693 47.7516H174.329V56.6904ZM194.089 56.6904H186.04V30.0612H177.896V21.1224H202.232V30.0612H194.089V56.6904ZM214.996 56.6904H206.9V21.1224H214.996V56.6904ZM238.431 46.3476V31.4652C238.431 30.5292 237.963 30.0612 237.027 30.0612H230.288C229.352 30.0612 228.884 30.5292 228.884 31.4652V46.3476C228.884 47.2836 229.352 47.7516 230.288 47.7516H237.027C237.963 47.7516 238.431 47.2836 238.431 46.3476ZM240.069 56.6904H227.199C222.94 56.6904 220.787 54.6312 220.787 50.466V27.6276C220.787 23.2752 222.94 21.1224 227.199 21.1224H240.069C244.375 21.1224 246.481 23.2752 246.481 27.6276V50.466C246.481 54.6312 244.375 56.6904 240.069 56.6904ZM279.47 56.6904H272.684L260.376 37.8768V56.6904H252.279V21.1224H260.048L271.374 39.702V21.1224H279.47V56.6904ZM303.897 56.6904H285.271V47.7516H301.23C302.166 47.7516 302.634 47.2836 302.634 46.3476V44.0076C302.634 43.0716 302.166 42.6036 301.23 42.6036H291.776C287.424 42.6036 285.224 40.5444 285.224 36.3792V27.9084C285.224 23.3688 287.33 21.1224 291.542 21.1224H309.888V30.0612H294.725C293.789 30.0612 293.321 30.5292 293.321 31.4652V33.7584C293.321 34.6944 293.789 35.1624 294.725 35.1624H304.459C308.624 35.1624 310.683 37.2684 310.683 41.4336V49.764C310.683 54.3972 308.437 56.6904 303.897 56.6904Z" fill="#285D2D"/>
</svg>
