<svg width="92" height="60" viewBox="0 0 92 60" fill="none" xmlns="http://www.w3.org/2000/svg">
<path d="M49.2653 17.6487C49.2653 17.6487 55.4608 10.7213 55.7989 10.7602C57.523 10.957 69.094 10.7602 69.094 10.7602L76.3788 4.17993C76.3788 4.17993 77.6664 2.87425 78.5122 3.72139C79.3581 4.56853 88.0367 14.9311 88.0367 14.9311C88.0367 14.9311 88.7582 16.3508 87.1675 17.6487C85.5769 18.9466 75.5434 28.4789 75.5434 28.4789C75.5434 28.4789 74.739 29.734 73.0978 30.7521C71.4567 31.7703 69.2624 33.2547 69.2624 33.2547C69.2624 33.2547 68.9463 33.7145 67.028 33.778C65.1096 33.8415 60.3623 33.6912 58.5268 34.5435C56.6914 35.3959 55.7432 35.37 55.7432 35.37C55.7432 35.37 51.7031 37.5927 49.5348 36.4295C47.3651 35.2663 46.7602 31.6187 49.2653 30.1395C51.7692 28.6602 52.365 28.9426 53.8158 28.4776C55.2665 28.0125 59.7341 26.9141 61.1252 24.9854C61.7444 24.1266 62.2185 23.2043 62.2405 22.6292C62.2625 22.0541 62.0462 21.2095 60.2755 21.1784C58.5048 21.1473 55.7225 22.4232 55.2613 23.1888C55.0088 23.6084 49.2653 17.6474 49.2653 17.6474V17.6487Z" fill="#00FF47"/>
<path d="M19.3438 46.9235H58.8508L65.975 38.8925C65.975 38.8925 68.1861 35.4029 63.6435 35.7837C61.2899 35.9806 56.6462 36.8394 55.277 37.5751C53.9079 38.3122 50.7124 38.6943 50.8199 38.6334C50.9274 38.5725 48.2344 38.6438 47.1205 37.1179C46.0065 35.592 44.4482 32.8459 46.5816 30.0752C47.8186 28.4677 48.0311 28.254 49.0259 27.9082C50.0207 27.5623 54.8353 26.3292 54.8353 26.3292L46.092 18.3357C46.092 18.3357 45.5311 17.1946 43.6957 19.464C41.8602 21.7334 19.3438 46.9248 19.3438 46.9248V46.9235Z" fill="#00FF47"/>
<path d="M17.0122 46.5349L21.9344 40.4469L10.8698 40.4029C10.8698 40.4029 8.75456 40.0104 8.11209 41.3964C7.46961 42.7824 2.21323 53.1411 2.21323 53.1411C2.21323 53.1411 0.833718 55.5633 3.11606 55.5193C5.3984 55.4752 73.7469 55.7887 73.7469 55.7887C73.7469 55.7887 78.4865 56.1436 77.1096 53.4778C75.7326 50.8121 71.1472 41.7889 71.1472 41.7889C71.1472 41.7889 70.4232 40.0609 67.1926 40.5078C66.6667 40.5803 61.7005 46.816 61.7005 46.816L64.9388 46.9248L65.8455 48.9973L13.2558 48.8678L13.906 47.3523C13.906 47.3523 13.8607 46.9948 14.9397 46.9611C16.0187 46.9274 16.5808 47.0505 17.0122 46.5362V46.5349Z" fill="#00FF47"/>
</svg>
