<svg width="126" height="50" viewBox="0 0 126 50" fill="none" xmlns="http://www.w3.org/2000/svg">
<path d="M34.4621 16.9993C34.4621 16.9993 38.7645 12.3694 38.9993 12.3954C40.1966 12.527 48.232 12.3954 48.232 12.3954L53.2909 7.99751C53.2909 7.99751 54.1851 7.12486 54.7724 7.69104C55.3598 8.25723 61.3866 15.183 61.3866 15.183C61.3866 15.183 61.8877 16.1319 60.7831 16.9993C59.6784 17.8668 52.7107 24.2377 52.7107 24.2377C52.7107 24.2377 52.1521 25.0766 51.0124 25.757C49.8727 26.4375 48.3489 27.4296 48.3489 27.4296C48.3489 27.4296 48.1295 27.7369 46.7973 27.7794C45.4651 27.8218 42.1683 27.7214 40.8937 28.291C39.6191 28.8607 38.9606 28.8433 38.9606 28.8433C38.9606 28.8433 36.155 30.3289 34.6492 29.5515C33.1425 28.7741 32.7224 26.3362 34.4621 25.3475C36.2009 24.3589 36.6147 24.5476 37.6221 24.2368C38.6296 23.926 41.7321 23.1919 42.6981 21.9028C43.1281 21.3288 43.4573 20.7124 43.4726 20.3281C43.4879 19.9437 43.3377 19.3792 42.1081 19.3584C40.8784 19.3377 38.9462 20.1904 38.626 20.7021C38.4506 20.9825 34.4621 16.9985 34.4621 16.9985V16.9993Z" fill="#00FF47"/>
<path d="M13.6831 36.564H41.1186L46.066 31.1965C46.066 31.1965 47.6014 28.8642 44.4468 29.1187C42.8124 29.2503 39.5876 29.8243 38.6368 30.316C37.686 30.8086 35.4669 31.064 35.5415 31.0233C35.6162 30.9826 33.7461 31.0303 32.9725 30.0104C32.1989 28.9906 31.1168 27.1553 32.5983 25.3035C33.4573 24.2291 33.6049 24.0863 34.2957 23.8551C34.9865 23.624 38.3301 22.7998 38.3301 22.7998L32.2583 17.4574C32.2583 17.4574 31.8688 16.6947 30.5942 18.2114C29.3195 19.7282 13.6831 36.5649 13.6831 36.5649V36.564Z" fill="#0BA336"/>
<path d="M12.064 36.3045L15.4822 32.2356L7.79844 32.2062C7.79844 32.2062 6.32952 31.9439 5.88336 32.8702C5.43719 33.7965 1.78693 40.7197 1.78693 40.7197C1.78693 40.7197 0.828937 42.3386 2.4139 42.3092C3.99886 42.2798 51.4631 42.4893 51.4631 42.4893C51.4631 42.4893 54.7545 42.7265 53.7983 40.9448C52.8421 39.1632 49.6578 33.1325 49.6578 33.1325C49.6578 33.1325 49.1549 31.9776 46.9115 32.2763C46.5463 32.3248 43.0975 36.4924 43.0975 36.4924L45.3463 36.5651L45.976 37.9503L9.45536 37.8637L9.90693 36.8508C9.90693 36.8508 9.87544 36.6119 10.6247 36.5893C11.374 36.5668 11.7644 36.6491 12.064 36.3054V36.3045Z" fill="#00FF47"/>
<path d="M75.78 14.5H73.728L70.296 9.304V14.5H68.244V6.076H70.296L73.728 11.296V6.076H75.78V14.5ZM78.2994 7.108C77.9394 7.108 77.6434 7.004 77.4114 6.796C77.1874 6.58 77.0754 6.316 77.0754 6.004C77.0754 5.684 77.1874 5.42 77.4114 5.212C77.6434 4.996 77.9394 4.888 78.2994 4.888C78.6514 4.888 78.9394 4.996 79.1634 5.212C79.3954 5.42 79.5114 5.684 79.5114 6.004C79.5114 6.316 79.3954 6.58 79.1634 6.796C78.9394 7.004 78.6514 7.108 78.2994 7.108ZM79.3194 7.804V14.5H77.2674V7.804H79.3194ZM83.3505 7.708C83.8225 7.708 84.2345 7.804 84.5865 7.996C84.9465 8.188 85.2225 8.44 85.4145 8.752V7.804H87.4665V14.488C87.4665 15.104 87.3425 15.66 87.0945 16.156C86.8545 16.66 86.4825 17.06 85.9785 17.356C85.4825 17.652 84.8625 17.8 84.1185 17.8C83.1265 17.8 82.3225 17.564 81.7065 17.092C81.0905 16.628 80.7385 15.996 80.6505 15.196H82.6785C82.7425 15.452 82.8945 15.652 83.1345 15.796C83.3745 15.948 83.6705 16.024 84.0225 16.024C84.4465 16.024 84.7825 15.9 85.0305 15.652C85.2865 15.412 85.4145 15.024 85.4145 14.488V13.54C85.2145 13.852 84.9385 14.108 84.5865 14.308C84.2345 14.5 83.8225 14.596 83.3505 14.596C82.7985 14.596 82.2985 14.456 81.8505 14.176C81.4025 13.888 81.0465 13.484 80.7825 12.964C80.5265 12.436 80.3985 11.828 80.3985 11.14C80.3985 10.452 80.5265 9.848 80.7825 9.328C81.0465 8.808 81.4025 8.408 81.8505 8.128C82.2985 7.848 82.7985 7.708 83.3505 7.708ZM85.4145 11.152C85.4145 10.64 85.2705 10.236 84.9825 9.94C84.7025 9.644 84.3585 9.496 83.9505 9.496C83.5425 9.496 83.1945 9.644 82.9065 9.94C82.6265 10.228 82.4865 10.628 82.4865 11.14C82.4865 11.652 82.6265 12.06 82.9065 12.364C83.1945 12.66 83.5425 12.808 83.9505 12.808C84.3585 12.808 84.7025 12.66 84.9825 12.364C85.2705 12.068 85.4145 11.664 85.4145 11.152ZM95.263 11.044C95.263 11.236 95.251 11.436 95.227 11.644H90.583C90.615 12.06 90.747 12.38 90.979 12.604C91.219 12.82 91.511 12.928 91.855 12.928C92.367 12.928 92.723 12.712 92.923 12.28H95.107C94.995 12.72 94.791 13.116 94.495 13.468C94.207 13.82 93.843 14.096 93.403 14.296C92.963 14.496 92.471 14.596 91.927 14.596C91.271 14.596 90.687 14.456 90.175 14.176C89.663 13.896 89.263 13.496 88.975 12.976C88.687 12.456 88.543 11.848 88.543 11.152C88.543 10.456 88.683 9.848 88.963 9.328C89.251 8.808 89.651 8.408 90.163 8.128C90.675 7.848 91.263 7.708 91.927 7.708C92.575 7.708 93.151 7.844 93.655 8.116C94.159 8.388 94.551 8.776 94.831 9.28C95.119 9.784 95.263 10.372 95.263 11.044ZM93.163 10.504C93.163 10.152 93.043 9.872 92.803 9.664C92.563 9.456 92.263 9.352 91.903 9.352C91.559 9.352 91.267 9.452 91.027 9.652C90.795 9.852 90.651 10.136 90.595 10.504H93.163ZM98.3976 8.92C98.6376 8.552 98.9376 8.264 99.2976 8.056C99.6576 7.84 100.058 7.732 100.498 7.732V9.904H99.9336C99.4216 9.904 99.0376 10.016 98.7816 10.24C98.5256 10.456 98.3976 10.84 98.3976 11.392V14.5H96.3456V7.804H98.3976V8.92ZM102.51 7.108C102.15 7.108 101.854 7.004 101.622 6.796C101.398 6.58 101.286 6.316 101.286 6.004C101.286 5.684 101.398 5.42 101.622 5.212C101.854 4.996 102.15 4.888 102.51 4.888C102.862 4.888 103.15 4.996 103.374 5.212C103.606 5.42 103.722 5.684 103.722 6.004C103.722 6.316 103.606 6.58 103.374 6.796C103.15 7.004 102.862 7.108 102.51 7.108ZM103.53 7.804V14.5H101.478V7.804H103.53ZM104.609 11.14C104.609 10.452 104.737 9.848 104.993 9.328C105.257 8.808 105.613 8.408 106.061 8.128C106.509 7.848 107.009 7.708 107.561 7.708C108.033 7.708 108.445 7.804 108.797 7.996C109.157 8.188 109.433 8.44 109.625 8.752V7.804H111.677V14.5H109.625V13.552C109.425 13.864 109.145 14.116 108.785 14.308C108.433 14.5 108.021 14.596 107.549 14.596C107.005 14.596 106.509 14.456 106.061 14.176C105.613 13.888 105.257 13.484 104.993 12.964C104.737 12.436 104.609 11.828 104.609 11.14ZM109.625 11.152C109.625 10.64 109.481 10.236 109.193 9.94C108.913 9.644 108.569 9.496 108.161 9.496C107.753 9.496 107.405 9.644 107.117 9.94C106.837 10.228 106.697 10.628 106.697 11.14C106.697 11.652 106.837 12.06 107.117 12.364C107.405 12.66 107.753 12.808 108.161 12.808C108.569 12.808 108.913 12.66 109.193 12.364C109.481 12.068 109.625 11.664 109.625 11.152Z" fill="white"/>
<path d="M70.296 22.72V24.424H73.044V26.008H70.296V27.856H73.404V29.5H68.244V21.076H73.404V22.72H70.296ZM76.7882 20.62V29.5H74.7362V20.62H76.7882ZM84.5872 26.044C84.5872 26.236 84.5753 26.436 84.5513 26.644H79.9073C79.9393 27.06 80.0713 27.38 80.3033 27.604C80.5433 27.82 80.8353 27.928 81.1793 27.928C81.6913 27.928 82.0473 27.712 82.2473 27.28H84.4313C84.3193 27.72 84.1153 28.116 83.8193 28.468C83.5313 28.82 83.1673 29.096 82.7273 29.296C82.2873 29.496 81.7953 29.596 81.2513 29.596C80.5953 29.596 80.0113 29.456 79.4993 29.176C78.9873 28.896 78.5873 28.496 78.2993 27.976C78.0113 27.456 77.8673 26.848 77.8673 26.152C77.8673 25.456 78.0073 24.848 78.2873 24.328C78.5753 23.808 78.9753 23.408 79.4873 23.128C79.9993 22.848 80.5873 22.708 81.2513 22.708C81.8993 22.708 82.4753 22.844 82.9793 23.116C83.4833 23.388 83.8753 23.776 84.1553 24.28C84.4433 24.784 84.5872 25.372 84.5872 26.044ZM82.4873 25.504C82.4873 25.152 82.3673 24.872 82.1273 24.664C81.8873 24.456 81.5873 24.352 81.2273 24.352C80.8833 24.352 80.5913 24.452 80.3513 24.652C80.1193 24.852 79.9753 25.136 79.9193 25.504H82.4873ZM85.2618 26.152C85.2618 25.456 85.4018 24.848 85.6818 24.328C85.9698 23.808 86.3658 23.408 86.8698 23.128C87.3818 22.848 87.9658 22.708 88.6218 22.708C89.4618 22.708 90.1618 22.928 90.7218 23.368C91.2898 23.808 91.6618 24.428 91.8378 25.228H89.6538C89.4698 24.716 89.1138 24.46 88.5858 24.46C88.2098 24.46 87.9098 24.608 87.6858 24.904C87.4618 25.192 87.3498 25.608 87.3498 26.152C87.3498 26.696 87.4618 27.116 87.6858 27.412C87.9098 27.7 88.2098 27.844 88.5858 27.844C89.1138 27.844 89.4698 27.588 89.6538 27.076H91.8378C91.6618 27.86 91.2898 28.476 90.7218 28.924C90.1538 29.372 89.4538 29.596 88.6218 29.596C87.9658 29.596 87.3818 29.456 86.8698 29.176C86.3658 28.896 85.9698 28.496 85.6818 27.976C85.4018 27.456 85.2618 26.848 85.2618 26.152ZM96.6674 27.76V29.5H95.6234C94.8794 29.5 94.2994 29.32 93.8834 28.96C93.4674 28.592 93.2594 27.996 93.2594 27.172V24.508H92.4434V22.804H93.2594V21.172H95.3114V22.804H96.6554V24.508H95.3114V27.196C95.3114 27.396 95.3594 27.54 95.4554 27.628C95.5514 27.716 95.7114 27.76 95.9354 27.76H96.6674ZM98.8424 22.108C98.4824 22.108 98.1864 22.004 97.9544 21.796C97.7304 21.58 97.6184 21.316 97.6184 21.004C97.6184 20.684 97.7304 20.42 97.9544 20.212C98.1864 19.996 98.4824 19.888 98.8424 19.888C99.1944 19.888 99.4824 19.996 99.7064 20.212C99.9384 20.42 100.054 20.684 100.054 21.004C100.054 21.316 99.9384 21.58 99.7064 21.796C99.4824 22.004 99.1944 22.108 98.8424 22.108ZM99.8624 22.804V29.5H97.8104V22.804H99.8624ZM104.397 29.596C103.741 29.596 103.149 29.456 102.621 29.176C102.101 28.896 101.689 28.496 101.385 27.976C101.089 27.456 100.941 26.848 100.941 26.152C100.941 25.464 101.093 24.86 101.397 24.34C101.701 23.812 102.117 23.408 102.645 23.128C103.173 22.848 103.765 22.708 104.421 22.708C105.077 22.708 105.669 22.848 106.197 23.128C106.725 23.408 107.141 23.812 107.445 24.34C107.749 24.86 107.901 25.464 107.901 26.152C107.901 26.84 107.745 27.448 107.433 27.976C107.129 28.496 106.709 28.896 106.173 29.176C105.645 29.456 105.053 29.596 104.397 29.596ZM104.397 27.82C104.789 27.82 105.121 27.676 105.393 27.388C105.673 27.1 105.813 26.688 105.813 26.152C105.813 25.616 105.677 25.204 105.405 24.916C105.141 24.628 104.813 24.484 104.421 24.484C104.021 24.484 103.689 24.628 103.425 24.916C103.161 25.196 103.029 25.608 103.029 26.152C103.029 26.688 103.157 27.1 103.413 27.388C103.677 27.676 104.005 27.82 104.397 27.82ZM113.07 22.732C113.854 22.732 114.478 22.988 114.942 23.5C115.414 24.004 115.65 24.7 115.65 25.588V29.5H113.61V25.864C113.61 25.416 113.494 25.068 113.262 24.82C113.03 24.572 112.718 24.448 112.326 24.448C111.934 24.448 111.622 24.572 111.39 24.82C111.158 25.068 111.042 25.416 111.042 25.864V29.5H108.99V22.804H111.042V23.692C111.25 23.396 111.53 23.164 111.882 22.996C112.234 22.82 112.63 22.732 113.07 22.732Z" fill="white"/>
<path d="M75.624 38.788C75.624 39.276 75.512 39.724 75.288 40.132C75.064 40.532 74.72 40.856 74.256 41.104C73.792 41.352 73.216 41.476 72.528 41.476H71.256V44.5H69.204V36.076H72.528C73.2 36.076 73.768 36.192 74.232 36.424C74.696 36.656 75.044 36.976 75.276 37.384C75.508 37.792 75.624 38.26 75.624 38.788ZM72.372 39.844C72.764 39.844 73.056 39.752 73.248 39.568C73.44 39.384 73.536 39.124 73.536 38.788C73.536 38.452 73.44 38.192 73.248 38.008C73.056 37.824 72.764 37.732 72.372 37.732H71.256V39.844H72.372ZM79.7403 44.596C79.0843 44.596 78.4923 44.456 77.9643 44.176C77.4443 43.896 77.0323 43.496 76.7283 42.976C76.4323 42.456 76.2843 41.848 76.2843 41.152C76.2843 40.464 76.4363 39.86 76.7403 39.34C77.0443 38.812 77.4603 38.408 77.9883 38.128C78.5163 37.848 79.1083 37.708 79.7643 37.708C80.4203 37.708 81.0123 37.848 81.5403 38.128C82.0683 38.408 82.4843 38.812 82.7883 39.34C83.0923 39.86 83.2443 40.464 83.2443 41.152C83.2443 41.84 83.0883 42.448 82.7763 42.976C82.4723 43.496 82.0523 43.896 81.5163 44.176C80.9883 44.456 80.3963 44.596 79.7403 44.596ZM79.7403 42.82C80.1323 42.82 80.4643 42.676 80.7363 42.388C81.0163 42.1 81.1563 41.688 81.1563 41.152C81.1563 40.616 81.0203 40.204 80.7483 39.916C80.4843 39.628 80.1563 39.484 79.7643 39.484C79.3643 39.484 79.0323 39.628 78.7683 39.916C78.5043 40.196 78.3723 40.608 78.3723 41.152C78.3723 41.688 78.5003 42.1 78.7563 42.388C79.0203 42.676 79.3483 42.82 79.7403 42.82ZM86.3849 35.62V44.5H84.3329V35.62H86.3849ZM89.924 35.62V44.5H87.872V35.62H89.924ZM94.1351 44.596C93.5511 44.596 93.0311 44.496 92.5751 44.296C92.1191 44.096 91.7591 43.824 91.4951 43.48C91.2311 43.128 91.0831 42.736 91.0511 42.304H93.0791C93.1031 42.536 93.2111 42.724 93.4031 42.868C93.5951 43.012 93.8311 43.084 94.1111 43.084C94.3671 43.084 94.5631 43.036 94.6991 42.94C94.8431 42.836 94.9151 42.704 94.9151 42.544C94.9151 42.352 94.8151 42.212 94.6151 42.124C94.4151 42.028 94.0911 41.924 93.6431 41.812C93.1631 41.7 92.7631 41.584 92.4431 41.464C92.1231 41.336 91.8471 41.14 91.6151 40.876C91.3831 40.604 91.2671 40.24 91.2671 39.784C91.2671 39.4 91.3711 39.052 91.5791 38.74C91.7951 38.42 92.1071 38.168 92.5151 37.984C92.9311 37.8 93.4231 37.708 93.9911 37.708C94.8311 37.708 95.4911 37.916 95.9711 38.332C96.4591 38.748 96.7391 39.3 96.8111 39.988H94.9151C94.8831 39.756 94.7791 39.572 94.6031 39.436C94.4351 39.3 94.2111 39.232 93.9311 39.232C93.6911 39.232 93.5071 39.28 93.3791 39.376C93.2511 39.464 93.1871 39.588 93.1871 39.748C93.1871 39.94 93.2871 40.084 93.4871 40.18C93.6951 40.276 94.0151 40.372 94.4471 40.468C94.9431 40.596 95.3471 40.724 95.6591 40.852C95.9711 40.972 96.2431 41.172 96.4751 41.452C96.7151 41.724 96.8391 42.092 96.8471 42.556C96.8471 42.948 96.7351 43.3 96.5111 43.612C96.2951 43.916 95.9791 44.156 95.5631 44.332C95.1551 44.508 94.6791 44.596 94.1351 44.596Z" fill="white"/>
</svg>
