<svg width="260" height="106" viewBox="0 0 260 106" fill="none" xmlns="http://www.w3.org/2000/svg">
<path d="M71.4607 35.2496C71.4607 35.2496 80.3821 25.649 80.869 25.7029C83.3516 25.9757 100.014 25.7029 100.014 25.7029L110.504 16.5834C110.504 16.5834 112.358 14.7739 113.576 15.9479C114.794 17.1219 127.291 31.4833 127.291 31.4833C127.291 31.4833 128.33 33.4508 126.04 35.2496C123.749 37.0484 109.301 50.259 109.301 50.259C109.301 50.259 108.143 51.9985 105.779 53.4095C103.416 54.8206 100.256 56.8778 100.256 56.8778C100.256 56.8778 99.8013 57.5151 97.0388 57.6031C94.2764 57.691 87.4403 57.4828 84.7972 58.664C82.1541 59.8452 80.7888 59.8093 80.7888 59.8093C80.7888 59.8093 74.9711 62.8898 71.8486 61.2778C68.7243 59.6657 67.8533 54.6105 71.4607 52.5604C75.0662 50.5103 75.9242 50.9017 78.0133 50.2572C80.1024 49.6128 86.5356 48.0905 88.5389 45.4174C89.4305 44.2272 90.1132 42.9491 90.1449 42.152C90.1766 41.355 89.8651 40.1845 87.3153 40.1414C84.7655 40.0983 80.7589 41.8666 80.0949 42.9275C79.7312 43.5092 71.4607 35.2478 71.4607 35.2478V35.2496Z" fill="#00FF47"/>
<path d="M28.3733 75.8208H85.2635L95.5224 64.6907C95.5224 64.6907 98.7064 59.8545 92.1649 60.3823C88.7758 60.6552 82.0888 61.8454 80.1173 62.865C78.1457 63.8865 73.5441 64.4161 73.6989 64.3317C73.8538 64.2473 69.9759 64.3461 68.3718 62.2313C66.7677 60.1166 64.5238 56.3109 67.5958 52.471C69.3772 50.2432 69.6831 49.947 71.1156 49.4677C72.5481 48.9884 79.4812 47.2794 79.4812 47.2794L66.8908 36.2014C66.8908 36.2014 66.0831 34.6198 63.4401 37.7649C60.797 40.9101 28.3733 75.8226 28.3733 75.8226V75.8208Z" fill="#0BA336"/>
<path d="M25.0159 75.2814L32.1038 66.8441L16.1709 66.783C16.1709 66.783 13.1249 66.2391 12.1997 68.1599C11.2746 70.0808 3.70538 84.4368 3.70538 84.4368C3.70538 84.4368 1.71888 87.7937 5.00546 87.7327C8.29203 87.6716 106.714 88.1061 106.714 88.1061C106.714 88.1061 113.539 88.598 111.556 84.9035C109.573 81.209 102.97 68.7039 102.97 68.7039C102.97 68.7039 101.928 66.3091 97.2757 66.9284C96.5184 67.029 89.3671 75.6709 89.3671 75.6709L94.0302 75.8217L95.3359 78.694L19.6066 78.5145L20.543 76.4141C20.543 76.4141 20.4777 75.9187 22.0315 75.872C23.5852 75.8253 24.3947 75.9959 25.0159 75.2832V75.2814Z" fill="#00FF47"/>
<path d="M157.908 30.2578H153.462L146.026 18.9998V30.2578H141.58V12.0058H146.026L153.462 23.3158V12.0058H157.908V30.2578ZM163.367 14.2418C162.587 14.2418 161.945 14.0165 161.443 13.5658C160.957 13.0978 160.715 12.5258 160.715 11.8498C160.715 11.1565 160.957 10.5845 161.443 10.1338C161.945 9.66581 162.587 9.43181 163.367 9.43181C164.129 9.43181 164.753 9.66581 165.239 10.1338C165.741 10.5845 165.993 11.1565 165.993 11.8498C165.993 12.5258 165.741 13.0978 165.239 13.5658C164.753 14.0165 164.129 14.2418 163.367 14.2418ZM165.577 15.7498V30.2578H161.131V15.7498H165.577ZM174.311 15.5418C175.333 15.5418 176.226 15.7498 176.989 16.1658C177.769 16.5818 178.367 17.1278 178.783 17.8038V15.7498H183.229V30.2318C183.229 31.5665 182.96 32.7711 182.423 33.8458C181.903 34.9378 181.097 35.8045 180.005 36.4458C178.93 37.0871 177.587 37.4078 175.975 37.4078C173.825 37.4078 172.083 36.8965 170.749 35.8738C169.414 34.8685 168.651 33.4991 168.461 31.7658H172.855C172.993 32.3205 173.323 32.7538 173.843 33.0658C174.363 33.3951 175.004 33.5598 175.767 33.5598C176.685 33.5598 177.413 33.2911 177.951 32.7538C178.505 32.2338 178.783 31.3931 178.783 30.2318V28.1778C178.349 28.8538 177.751 29.4085 176.989 29.8418C176.226 30.2578 175.333 30.4658 174.311 30.4658C173.115 30.4658 172.031 30.1625 171.061 29.5558C170.09 28.9318 169.319 28.0565 168.747 26.9298C168.192 25.7858 167.915 24.4685 167.915 22.9778C167.915 21.4871 168.192 20.1785 168.747 19.0518C169.319 17.9251 170.09 17.0585 171.061 16.4518C172.031 15.8451 173.115 15.5418 174.311 15.5418ZM178.783 23.0038C178.783 21.8945 178.471 21.0191 177.847 20.3778C177.24 19.7365 176.495 19.4158 175.611 19.4158C174.727 19.4158 173.973 19.7365 173.349 20.3778C172.742 21.0018 172.439 21.8685 172.439 22.9778C172.439 24.0871 172.742 24.9711 173.349 25.6298C173.973 26.2711 174.727 26.5918 175.611 26.5918C176.495 26.5918 177.24 26.2711 177.847 25.6298C178.471 24.9885 178.783 24.1131 178.783 23.0038ZM200.121 22.7698C200.121 23.1858 200.095 23.6191 200.043 24.0698H189.981C190.051 24.9711 190.337 25.6645 190.839 26.1498C191.359 26.6178 191.992 26.8518 192.737 26.8518C193.847 26.8518 194.618 26.3838 195.051 25.4478H199.783C199.541 26.4011 199.099 27.2591 198.457 28.0218C197.833 28.7845 197.045 29.3825 196.091 29.8158C195.138 30.2491 194.072 30.4658 192.893 30.4658C191.472 30.4658 190.207 30.1625 189.097 29.5558C187.988 28.9491 187.121 28.0825 186.497 26.9558C185.873 25.8291 185.561 24.5118 185.561 23.0038C185.561 21.4958 185.865 20.1785 186.471 19.0518C187.095 17.9251 187.962 17.0585 189.071 16.4518C190.181 15.8451 191.455 15.5418 192.893 15.5418C194.297 15.5418 195.545 15.8365 196.637 16.4258C197.729 17.0151 198.579 17.8558 199.185 18.9478C199.809 20.0398 200.121 21.3138 200.121 22.7698ZM195.571 21.5998C195.571 20.8371 195.311 20.2305 194.791 19.7798C194.271 19.3291 193.621 19.1038 192.841 19.1038C192.096 19.1038 191.463 19.3205 190.943 19.7538C190.441 20.1871 190.129 20.8025 190.007 21.5998H195.571ZM206.913 18.1678C207.433 17.3705 208.083 16.7465 208.863 16.2958C209.643 15.8278 210.509 15.5938 211.463 15.5938V20.2998H210.241C209.131 20.2998 208.299 20.5425 207.745 21.0278C207.19 21.4958 206.913 22.3278 206.913 23.5238V30.2578H202.467V15.7498H206.913V18.1678ZM215.824 14.2418C215.044 14.2418 214.402 14.0165 213.9 13.5658C213.414 13.0978 213.172 12.5258 213.172 11.8498C213.172 11.1565 213.414 10.5845 213.9 10.1338C214.402 9.66581 215.044 9.43181 215.824 9.43181C216.586 9.43181 217.21 9.66581 217.696 10.1338C218.198 10.5845 218.45 11.1565 218.45 11.8498C218.45 12.5258 218.198 13.0978 217.696 13.5658C217.21 14.0165 216.586 14.2418 215.824 14.2418ZM218.034 15.7498V30.2578H213.588V15.7498H218.034ZM220.372 22.9778C220.372 21.4871 220.649 20.1785 221.204 19.0518C221.776 17.9251 222.547 17.0585 223.518 16.4518C224.488 15.8451 225.572 15.5418 226.768 15.5418C227.79 15.5418 228.683 15.7498 229.446 16.1658C230.226 16.5818 230.824 17.1278 231.24 17.8038V15.7498H235.686V30.2578H231.24V28.2038C230.806 28.8798 230.2 29.4258 229.42 29.8418C228.657 30.2578 227.764 30.4658 226.742 30.4658C225.563 30.4658 224.488 30.1625 223.518 29.5558C222.547 28.9318 221.776 28.0565 221.204 26.9298C220.649 25.7858 220.372 24.4685 220.372 22.9778ZM231.24 23.0038C231.24 21.8945 230.928 21.0191 230.304 20.3778C229.697 19.7365 228.952 19.4158 228.068 19.4158C227.184 19.4158 226.43 19.7365 225.806 20.3778C225.199 21.0018 224.896 21.8685 224.896 22.9778C224.896 24.0871 225.199 24.9711 225.806 25.6298C226.43 26.2711 227.184 26.5918 228.068 26.5918C228.952 26.5918 229.697 26.2711 230.304 25.6298C230.928 24.9885 231.24 24.1131 231.24 23.0038Z" fill="#17A147"/>
<path d="M146.026 46.6713V50.3633H151.98V53.7953H146.026V57.7993H152.76V61.3613H141.58V43.1093H152.76V46.6713H146.026ZM160.092 42.1213V61.3613H155.646V42.1213H160.092ZM176.99 53.8733C176.99 54.2893 176.964 54.7227 176.912 55.1733H166.85C166.92 56.0747 167.206 56.768 167.708 57.2533C168.228 57.7213 168.861 57.9553 169.606 57.9553C170.716 57.9553 171.487 57.4873 171.92 56.5513H176.652C176.41 57.5047 175.968 58.3627 175.326 59.1253C174.702 59.888 173.914 60.486 172.96 60.9193C172.007 61.3527 170.941 61.5693 169.762 61.5693C168.341 61.5693 167.076 61.266 165.966 60.6593C164.857 60.0527 163.99 59.186 163.366 58.0593C162.742 56.9327 162.43 55.6153 162.43 54.1073C162.43 52.5993 162.734 51.282 163.34 50.1553C163.964 49.0287 164.831 48.162 165.94 47.5553C167.05 46.9487 168.324 46.6453 169.762 46.6453C171.166 46.6453 172.414 46.94 173.506 47.5293C174.598 48.1187 175.448 48.9593 176.054 50.0513C176.678 51.1433 176.99 52.4173 176.99 53.8733ZM172.44 52.7033C172.44 51.9407 172.18 51.334 171.66 50.8833C171.14 50.4327 170.49 50.2073 169.71 50.2073C168.965 50.2073 168.332 50.424 167.812 50.8573C167.31 51.2907 166.998 51.906 166.876 52.7033H172.44ZM178.452 54.1073C178.452 52.5993 178.755 51.282 179.362 50.1553C179.986 49.0287 180.844 48.162 181.936 47.5553C183.045 46.9487 184.311 46.6453 185.732 46.6453C187.552 46.6453 189.069 47.122 190.282 48.0753C191.513 49.0287 192.319 50.372 192.7 52.1053H187.968C187.569 50.996 186.798 50.4413 185.654 50.4413C184.839 50.4413 184.189 50.762 183.704 51.4033C183.219 52.0273 182.976 52.9287 182.976 54.1073C182.976 55.286 183.219 56.196 183.704 56.8373C184.189 57.4613 184.839 57.7733 185.654 57.7733C186.798 57.7733 187.569 57.2187 187.968 56.1093H192.7C192.319 57.808 191.513 59.1427 190.282 60.1133C189.051 61.084 187.535 61.5693 185.732 61.5693C184.311 61.5693 183.045 61.266 181.936 60.6593C180.844 60.0527 179.986 59.186 179.362 58.0593C178.755 56.9327 178.452 55.6153 178.452 54.1073ZM203.164 57.5913V61.3613H200.902C199.29 61.3613 198.033 60.9713 197.132 60.1913C196.231 59.394 195.78 58.1027 195.78 56.3173V50.5453H194.012V46.8533H195.78V43.3173H200.226V46.8533H203.138V50.5453H200.226V56.3693C200.226 56.8027 200.33 57.1147 200.538 57.3053C200.746 57.496 201.093 57.5913 201.578 57.5913H203.164ZM207.877 45.3453C207.097 45.3453 206.455 45.12 205.953 44.6693C205.467 44.2013 205.225 43.6293 205.225 42.9533C205.225 42.26 205.467 41.688 205.953 41.2373C206.455 40.7693 207.097 40.5353 207.877 40.5353C208.639 40.5353 209.263 40.7693 209.749 41.2373C210.251 41.688 210.503 42.26 210.503 42.9533C210.503 43.6293 210.251 44.2013 209.749 44.6693C209.263 45.12 208.639 45.3453 207.877 45.3453ZM210.087 46.8533V61.3613H205.641V46.8533H210.087ZM219.913 61.5693C218.491 61.5693 217.209 61.266 216.065 60.6593C214.938 60.0527 214.045 59.186 213.387 58.0593C212.745 56.9327 212.425 55.6153 212.425 54.1073C212.425 52.6167 212.754 51.308 213.413 50.1813C214.071 49.0373 214.973 48.162 216.117 47.5553C217.261 46.9487 218.543 46.6453 219.965 46.6453C221.386 46.6453 222.669 46.9487 223.813 47.5553C224.957 48.162 225.858 49.0373 226.517 50.1813C227.175 51.308 227.505 52.6167 227.505 54.1073C227.505 55.598 227.167 56.9153 226.491 58.0593C225.832 59.186 224.922 60.0527 223.761 60.6593C222.617 61.266 221.334 61.5693 219.913 61.5693ZM219.913 57.7213C220.762 57.7213 221.481 57.4093 222.071 56.7853C222.677 56.1613 222.981 55.2687 222.981 54.1073C222.981 52.946 222.686 52.0533 222.097 51.4293C221.525 50.8053 220.814 50.4933 219.965 50.4933C219.098 50.4933 218.379 50.8053 217.807 51.4293C217.235 52.036 216.949 52.9287 216.949 54.1073C216.949 55.2687 217.226 56.1613 217.781 56.7853C218.353 57.4093 219.063 57.7213 219.913 57.7213ZM238.703 46.6973C240.402 46.6973 241.754 47.252 242.759 48.3613C243.782 49.4533 244.293 50.9613 244.293 52.8853V61.3613H239.873V53.4833C239.873 52.5127 239.622 51.7587 239.119 51.2213C238.617 50.684 237.941 50.4153 237.091 50.4153C236.242 50.4153 235.566 50.684 235.063 51.2213C234.561 51.7587 234.309 52.5127 234.309 53.4833V61.3613H229.863V46.8533H234.309V48.7773C234.76 48.136 235.367 47.6333 236.129 47.2693C236.892 46.888 237.75 46.6973 238.703 46.6973Z" fill="#8E95A2"/>
<path d="M157.481 80.0898C157.481 81.1472 157.238 82.1178 156.753 83.0018C156.267 83.8685 155.522 84.5705 154.517 85.1078C153.511 85.6452 152.263 85.9138 150.773 85.9138H148.017V92.4658H143.571V74.2138H150.773C152.229 74.2138 153.459 74.4652 154.465 74.9678C155.47 75.4705 156.224 76.1638 156.727 77.0478C157.229 77.9318 157.481 78.9458 157.481 80.0898ZM150.435 82.3778C151.284 82.3778 151.917 82.1785 152.333 81.7798C152.749 81.3812 152.957 80.8178 152.957 80.0898C152.957 79.3618 152.749 78.7985 152.333 78.3998C151.917 78.0012 151.284 77.8018 150.435 77.8018H148.017V82.3778H150.435ZM166.399 92.6738C164.978 92.6738 163.695 92.3705 162.551 91.7638C161.425 91.1572 160.532 90.2905 159.873 89.1638C159.232 88.0372 158.911 86.7198 158.911 85.2118C158.911 83.7212 159.241 82.4125 159.899 81.2858C160.558 80.1418 161.459 79.2665 162.603 78.6598C163.747 78.0532 165.03 77.7498 166.451 77.7498C167.873 77.7498 169.155 78.0532 170.299 78.6598C171.443 79.2665 172.345 80.1418 173.003 81.2858C173.662 82.4125 173.991 83.7212 173.991 85.2118C173.991 86.7025 173.653 88.0198 172.977 89.1638C172.319 90.2905 171.409 91.1572 170.247 91.7638C169.103 92.3705 167.821 92.6738 166.399 92.6738ZM166.399 88.8258C167.249 88.8258 167.968 88.5138 168.557 87.8898C169.164 87.2658 169.467 86.3732 169.467 85.2118C169.467 84.0505 169.173 83.1578 168.583 82.5338C168.011 81.9098 167.301 81.5978 166.451 81.5978C165.585 81.5978 164.865 81.9098 164.293 82.5338C163.721 83.1405 163.435 84.0332 163.435 85.2118C163.435 86.3732 163.713 87.2658 164.267 87.8898C164.839 88.5138 165.55 88.8258 166.399 88.8258ZM180.796 73.2258V92.4658H176.35V73.2258H180.796ZM188.464 73.2258V92.4658H184.018V73.2258H188.464ZM197.588 92.6738C196.323 92.6738 195.196 92.4572 194.208 92.0238C193.22 91.5905 192.44 91.0012 191.868 90.2558C191.296 89.4932 190.975 88.6438 190.906 87.7078H195.3C195.352 88.2105 195.586 88.6178 196.002 88.9298C196.418 89.2418 196.929 89.3978 197.536 89.3978C198.091 89.3978 198.515 89.2938 198.81 89.0858C199.122 88.8605 199.278 88.5745 199.278 88.2278C199.278 87.8118 199.061 87.5085 198.628 87.3178C198.195 87.1098 197.493 86.8845 196.522 86.6418C195.482 86.3992 194.615 86.1478 193.922 85.8878C193.229 85.6105 192.631 85.1858 192.128 84.6138C191.625 84.0245 191.374 83.2358 191.374 82.2478C191.374 81.4158 191.599 80.6618 192.05 79.9858C192.518 79.2925 193.194 78.7465 194.078 78.3478C194.979 77.9492 196.045 77.7498 197.276 77.7498C199.096 77.7498 200.526 78.2005 201.566 79.1018C202.623 80.0032 203.23 81.1992 203.386 82.6898H199.278C199.209 82.1872 198.983 81.7885 198.602 81.4938C198.238 81.1992 197.753 81.0518 197.146 81.0518C196.626 81.0518 196.227 81.1558 195.95 81.3638C195.673 81.5545 195.534 81.8232 195.534 82.1698C195.534 82.5858 195.751 82.8978 196.184 83.1058C196.635 83.3138 197.328 83.5218 198.264 83.7298C199.339 84.0072 200.214 84.2845 200.89 84.5618C201.566 84.8218 202.155 85.2552 202.658 85.8618C203.178 86.4512 203.447 87.2485 203.464 88.2538C203.464 89.1032 203.221 89.8658 202.736 90.5418C202.268 91.2005 201.583 91.7205 200.682 92.1018C199.798 92.4832 198.767 92.6738 197.588 92.6738Z" fill="#17A147"/>
</svg>
