<svg width="40" height="39" viewBox="0 0 40 39" fill="none" xmlns="http://www.w3.org/2000/svg">
  <path d="M7.86668 0.333984H2.66668C2.20697 0.333984 1.76609 0.516602 1.44103 0.841665C1.11597 1.16673 0.93335 1.60761 0.93335 2.06732V36.734C0.93335 37.1937 1.11597 37.6346 1.44103 37.9596C1.76609 38.2847 2.20697 38.4673 2.66668 38.4673H7.86668V0.333984Z" fill="#2BC155"/>
  <path d="M11.3334 38.4673H28.6667V0.333984H11.3334V38.4673ZM20 31.534C19.5403 31.534 19.0995 31.3514 18.7744 31.0263C18.4493 30.7012 18.2667 30.2604 18.2667 29.8007C18.2667 29.3409 18.4493 28.9001 18.7744 28.575C19.0995 28.2499 19.5403 28.0673 20 28.0673C20.4597 28.0673 20.9006 28.2499 21.2257 28.575C21.5508 28.9001 21.7334 29.3409 21.7334 29.8007C21.7334 30.2604 21.5508 30.7012 21.2257 31.0263C20.9006 31.3514 20.4597 31.534 20 31.534ZM20 7.26732C20.4597 7.26732 20.9006 7.44994 21.2257 7.775C21.5508 8.10006 21.7334 8.54094 21.7334 9.00065C21.7334 9.46036 21.5508 9.90124 21.2257 10.2263C20.9006 10.5514 20.4597 10.734 20 10.734C19.5403 10.734 19.0995 10.5514 18.7744 10.2263C18.4493 9.90124 18.2667 9.46036 18.2667 9.00065C18.2667 8.54094 18.4493 8.10006 18.7744 7.775C19.0995 7.44994 19.5403 7.26732 20 7.26732ZM20 17.6673C20.4597 17.6673 20.9006 17.8499 21.2257 18.175C21.5508 18.5001 21.7334 18.9409 21.7334 19.4007C21.7334 19.8604 21.5508 20.3012 21.2257 20.6263C20.9006 20.9514 20.4597 21.134 20 21.134C19.5403 21.134 19.0995 20.9514 18.7744 20.6263C18.4493 20.3012 18.2667 19.8604 18.2667 19.4007C18.2667 18.9409 18.4493 18.5001 18.7744 18.175C19.0995 17.8499 19.5403 17.6673 20 17.6673Z" fill="#285D2D"/>
  <path d="M37.3333 0.333984H32.1333V38.4673H37.3333C37.793 38.4673 38.2339 38.2847 38.559 37.9596C38.884 37.6346 39.0666 37.1937 39.0666 36.734V2.06732C39.0666 1.60761 38.884 1.16673 38.559 0.841665C38.2339 0.516602 37.793 0.333984 37.3333 0.333984Z" fill="#1DB5BE"/>
</svg>