<svg width="42" height="42" viewBox="0 0 42 42" fill="none" xmlns="http://www.w3.org/2000/svg">
  <path d="M40.2666 10.5964V3.66302C40.2666 3.20331 40.084 2.76243 39.759 2.43737C39.4339 2.1123 38.993 1.92969 38.5333 1.92969H3.86663C3.40693 1.92969 2.96604 2.1123 2.64098 2.43737C2.31592 2.76243 2.1333 3.20331 2.1333 3.66302V10.5964H40.2666Z" fill="#1DB5BE"/>
  <path d="M2.1333 14.0645V38.3311C2.1333 38.7908 2.31592 39.2317 2.64098 39.5568C2.96604 39.8818 3.40693 40.0645 3.86663 40.0645H12.5333V14.0645H2.1333Z" fill="#A5E2AC"/>
  <path d="M16 40.0645H38.5333C38.993 40.0645 39.4339 39.8818 39.759 39.5568C40.084 39.2317 40.2667 38.7908 40.2667 38.3311V14.0645H16V40.0645Z" fill="#285D2D"/>
</svg>