<svg width="78" height="100" viewBox="0 0 78 100" fill="none" xmlns="http://www.w3.org/2000/svg">
  <path d="M56.453 71.655V93.9577C56.453 95.84 55.8648 97.1174 54.6967 97.7896C53.5203 98.4535 52.1169 98.3106 50.4698 97.3611L8.6127 73.1928C6.96564 72.2432 5.55385 70.7642 4.38579 68.739C3.21772 66.7222 2.62952 64.7643 2.62952 62.8819V14.8483C2.62952 12.9575 3.21772 11.6802 4.38579 11.0164L4.75554 10.8315C5.84798 10.3861 7.13371 10.5878 8.6127 11.4365L19.4362 17.6886L25.4194 21.1424L45.9068 32.9743C46.7556 33.4617 47.4698 34.2012 48.0413 35.1844C48.6127 36.176 48.8984 37.1592 48.8984 38.1256C48.8984 39.092 48.6127 39.7474 48.0413 40.0752C47.4698 40.4029 46.7556 40.3189 45.9068 39.8315L25.4194 27.9995L19.4362 24.5458L8.6127 18.2937V66.3357L50.4698 90.5039V68.2012C50.4698 67.2264 50.7556 66.5794 51.327 66.2516L51.5035 66.1676C52.0413 65.9407 52.6967 66.0584 53.4614 66.4953C54.3102 66.9827 55.0161 67.7222 55.5875 68.7138C56.1673 69.697 56.453 70.6802 56.453 71.655Z" fill="#285D2D"/>
  <path d="M75.3522 43.5296C75.3522 44.496 75.0497 45.1599 74.4531 45.496L47.0162 61.1347L46.7977 61.2439L38.4112 65.4372L32.0498 68.6221L30.2095 69.538L31.9406 68.5548L37.9153 65.1431L45.1001 61.0506L57.6464 53.8994C58.243 53.5632 58.5455 52.8994 58.5455 51.933C58.5455 50.9666 58.243 49.9834 57.6464 49.0086C57.0497 48.0338 56.3522 47.3195 55.5539 46.8574C55.4951 46.8237 55.4364 46.7901 55.3775 46.7649C54.7305 46.4288 54.1758 46.3616 53.7052 46.5548L70.3439 38.2355C70.8901 37.9246 71.5623 37.9918 72.3606 38.454C73.159 38.9162 73.8564 39.6305 74.4531 40.6053C75.0497 41.58 75.3522 42.5548 75.3522 43.5296Z" fill="#162C15"/>
  <path d="M58.5455 51.9324C58.5455 52.8988 58.243 53.5627 57.6464 53.8988L45.1002 61.05L37.9153 65.1425L31.9405 68.5543L30.2094 69.5374C29.6128 69.882 28.9153 69.8232 28.117 69.361C27.3186 68.8988 26.6212 68.1593 26.0245 67.1257L24.1674 63.924L21.7556 59.7643L19.5539 55.966L13.3186 45.2013C12.7724 44.2601 12.4951 43.3022 12.4951 42.3274C12.4951 41.3526 12.7724 40.7139 13.3186 40.403L13.5035 40.3106C14.0245 40.1173 14.6548 40.2265 15.4111 40.6635C16.2598 41.1593 16.9573 41.8736 17.5035 42.8148L19.4363 46.1509L25.4195 56.4702L26.6884 58.6635L28.117 61.1257L29.5455 60.3106L40.2262 54.2265L44.4111 51.84L53.5371 46.6383L53.7052 46.5543C54.1758 46.361 54.7304 46.4282 55.3775 46.7643C55.4363 46.7895 55.4951 46.8232 55.5539 46.8568C56.3523 47.319 57.0497 48.0332 57.6464 49.008C58.243 49.9828 58.5455 50.9576 58.5455 51.9324Z" fill="#285D2D"/>
  <path d="M50.4698 72.3939V90.5035L8.61267 66.3351L21.0665 60.1082L21.7555 59.7637L24.1673 63.9233L26.0244 67.125C26.6211 68.1586 27.3186 68.8981 28.1169 69.3603C28.9152 69.8225 29.6127 69.8813 30.2093 69.5368L32.0497 68.6208L38.411 65.4359L50.4698 72.3939Z" fill="#A5E2AC"/>
  <path d="M12.495 42.3285C12.495 43.3033 12.7723 44.2613 13.3186 45.2025L19.5539 55.9672L21.7555 59.7655L21.0665 60.11L8.61267 66.3369V18.2949L19.4362 24.547L25.4194 28.0008V34.3537L13.3186 40.4042C12.7723 40.7151 12.495 41.3537 12.495 42.3285Z" fill="#A5E2AC"/>
  <path d="M44.411 51.8398L40.2261 54.2264L29.5454 60.3104L28.1169 61.1255L26.6883 58.6633L25.4194 56.4701L19.4362 46.1507L17.5034 42.8146C16.9572 41.8734 16.2598 41.1591 15.4111 40.6633C14.6548 40.2264 14.0244 40.1171 13.5034 40.3104L30.1253 31.9995C30.6715 31.6885 31.369 31.7726 32.2178 32.26C33.0665 32.7558 33.7639 33.4701 34.3101 34.4112L44.411 51.8398Z" fill="#162C15"/>
  <path d="M65.7053 29.7229C65.7053 30.6977 65.4195 31.3448 64.848 31.6725L64.6716 31.7565L48.0413 40.0759C48.6127 39.7481 48.8985 39.1011 48.8985 38.1263C48.8985 37.1515 48.6127 36.1767 48.0413 35.1851C47.4699 34.2019 46.7557 33.4624 45.9069 32.975L25.4195 21.1431L19.4363 17.6893L8.61277 11.4372C7.13378 10.5885 5.84805 10.3868 4.75562 10.8322L21.1926 2.61369C22.3606 1.94142 23.7725 2.08428 25.4195 3.03386L62.7137 24.5717C63.5624 25.0591 64.2766 25.7986 64.848 26.7818C65.4195 27.7733 65.7053 28.7565 65.7053 29.7229Z" fill="#162C15"/>
  <path d="M73.2597 63.2519V85.5545C73.2597 87.4368 72.6716 88.7141 71.5035 89.3864L71.1338 89.5713L54.6968 97.7898C55.8648 97.1175 56.453 95.8402 56.453 93.9578V71.6552C56.453 70.6804 56.1674 69.6973 55.5875 68.7141C55.0161 67.7225 54.3101 66.983 53.4614 66.4956C52.6967 66.0586 52.0412 65.9409 51.5034 66.1678L68.1337 57.8485C68.7051 57.5208 69.4194 57.6048 70.2681 58.0922C71.1169 58.5796 71.8228 59.3191 72.3943 60.3107C72.9741 61.2939 73.2597 62.2771 73.2597 63.2519Z" fill="#162C15"/>
</svg>