<svg width="89" height="100" viewBox="0 0 89 100" fill="none" xmlns="http://www.w3.org/2000/svg">
  <path d="M68.5819 79.3574C68.117 83.2609 67.152 86.5592 65.6783 89.2781C64.0818 92.2342 61.8802 94.4886 59.0819 96.0237L57.6783 96.7255C51.459 99.4711 44.0819 98.3746 35.5644 93.4535C30.9503 90.7956 26.6257 87.296 22.5994 82.9539C18.5731 78.6206 15.0468 73.8574 12.0468 68.6732C9.03805 63.489 6.66087 58.0767 4.90648 52.4363C3.1521 46.8048 2.2749 41.3399 2.2749 36.0504C2.2749 30.7609 3.1521 26.3049 4.90648 22.6908C6.66087 19.0768 9.03805 16.4101 12.0468 14.6996C12.3538 14.5242 12.6696 14.3574 12.9854 14.2083L13.0819 14.1644C15.8538 12.8399 19.0292 12.3224 22.5994 12.6031C22.7748 12.6206 22.9416 12.6293 23.117 12.6469C26.9942 13.0504 31.1521 14.5241 35.5644 17.0679V11.8487C35.5644 11.261 35.7046 10.8749 35.9678 10.682L36.1783 10.5767C36.3011 10.5328 36.4416 10.5242 36.6082 10.5417C37.31 10.6119 37.9591 11.147 38.5381 12.1557L41.4766 17.2259L47.1258 26.9627C47.8275 28.1733 48.1696 29.3136 48.1696 30.3838C48.1696 31.454 47.8275 32.1907 47.1258 32.5942L45.3363 33.6118L38.5381 37.4891C38.1609 37.6996 37.7661 37.6907 37.3363 37.4539C37.0995 37.3311 36.8538 37.1381 36.6082 36.8749C35.9152 36.1381 35.5644 35.296 35.5644 34.3574V29.1293C35.4767 29.0767 35.3888 29.0241 35.3011 28.9802C33.8274 28.1469 32.4152 27.4803 31.0467 26.9891C26.8099 25.4627 23.0644 25.5504 19.8188 27.2697C19.6872 27.3223 19.5644 27.3925 19.4416 27.4627C15.003 29.9977 12.7837 34.875 12.7837 42.1119C12.7837 46.5417 13.6783 51.1556 15.459 55.9714C17.2397 60.7872 19.6169 65.2259 22.5994 69.2873C23.152 68.4978 23.8538 67.9013 24.7223 67.4978C25.3275 67.2083 26.0029 67.0153 26.7573 66.9188C28.5994 66.6732 30.7134 67.0767 33.1081 68.1206C32.9766 67.0065 32.8188 65.8749 32.6258 64.7258C32.5644 64.3662 32.503 64.0065 32.4328 63.6469C32.424 63.5942 32.4152 63.5505 32.4065 63.4978C32.117 61.9189 31.766 60.4101 31.3538 58.9715C30.7134 59.1996 30.0117 59.2609 29.2573 59.1644C29.231 59.1644 29.1959 59.1644 29.1695 59.1469C28.4327 59.0328 27.6433 58.7346 26.8012 58.2434C24.8714 57.1381 23.2223 55.3925 21.8538 53.0241C20.4854 50.6644 19.7924 48.375 19.7924 46.1645V42.1381C19.7924 41.603 19.7486 41.0592 19.6609 40.5065C19.5731 39.9539 19.4766 39.41 19.3538 38.8749C19.0644 37.9714 19.1082 37.3048 19.4854 36.8925C19.5731 36.796 19.6609 36.7258 19.766 36.6732C19.8625 36.6206 19.9678 36.603 20.0818 36.5942H20.0906C20.2836 36.5767 20.4941 36.6206 20.7222 36.7435C20.8187 36.7873 20.9152 36.8486 21.0205 36.9188C23.6521 38.5679 26.424 40.91 29.3451 43.9363C32.2661 46.9627 33.7486 50.4013 33.81 54.2521C33.81 54.8574 33.766 55.3837 33.6783 55.8311C33.5906 56.2872 33.4328 56.7171 33.1959 57.1119C32.4328 56.0066 31.6783 54.9627 30.9152 53.989C30.1608 53.0153 29.3714 52.0943 28.5556 51.2171C29.5468 52.6645 30.6872 54.6556 31.9679 57.2083C32.8188 58.9013 33.6345 60.717 34.4065 62.6556C34.8012 63.6469 35.1872 64.6644 35.5644 65.717C36.3626 63.9276 37.2924 62.2609 38.3626 60.682C38.6696 60.217 38.9854 59.7785 39.3188 59.3399C39.5205 59.0679 39.731 58.8049 39.9415 58.5417C41.6959 56.375 43.7397 54.6206 46.0731 53.2873C44.7309 53.5856 43.4415 53.9891 42.2134 54.4803C40.9941 54.9803 39.7924 55.5679 38.6257 56.2258C38.4152 55.717 38.2222 55.2083 38.0643 54.682C37.9064 54.1995 37.7749 53.7083 37.6609 53.2083C37.4328 52.1732 37.3099 51.182 37.3099 50.2434C37.3099 47.5328 38.0995 45.682 39.6696 44.6907C39.731 44.6469 39.7924 44.6118 39.8538 44.5767L40.2485 44.3837C41.8625 43.6556 43.8011 43.9363 46.0731 45.2521L48.6345 46.7259L49.5731 47.2698C49.7924 47.4013 50.0205 47.5153 50.2485 47.6381C50.4766 47.7521 50.7047 47.8574 50.9416 47.9539C51.3363 48.1293 51.7486 48.2785 52.1609 48.41C53.0644 48.6995 53.8363 48.6995 54.4766 48.3925C54.8889 48.1644 55.3538 48.3135 55.8802 48.8574C56.4065 49.3925 56.6696 49.9978 56.6696 50.6645V50.8399C56.6609 52.4714 56.5555 54.3838 56.3625 56.568C56.1608 58.8312 55.6959 60.8399 54.959 62.5943C54.7924 62.9891 54.617 63.3575 54.4152 63.6996C53.7398 64.8838 52.8538 65.761 51.766 66.3312C50.9415 66.761 49.9502 66.8223 48.7836 66.5153H48.7749C47.9591 66.3048 47.0555 65.9189 46.0731 65.3487C45.1959 64.8487 44.3626 64.2346 43.5731 63.5065C42.7837 62.7872 42.0731 62.0066 41.4328 61.1645C41.0205 62.1996 40.5555 63.6206 40.0292 65.4276C39.5029 67.2346 39.0907 69.261 38.8012 71.5066C41.0205 73.261 42.9766 75.261 44.6696 77.5066C45.31 78.3663 45.8977 79.217 46.424 80.0767C47.2837 81.4714 47.9854 82.8574 48.5205 84.2521C49.4065 84.0592 50.2398 83.7785 51.0205 83.41C52.3977 82.7434 53.6082 81.796 54.6521 80.5592C56.2924 78.6206 57.3977 76.0767 57.9854 72.9363C58.2749 71.4276 58.9328 70.4013 59.9503 69.8487C60.8538 69.3663 61.9065 69.41 63.1082 69.989C63.2661 70.0592 63.4239 70.1469 63.5906 70.2434C65.1081 71.1206 66.3802 72.4714 67.3977 74.296C67.5293 74.5241 67.6433 74.7521 67.7486 74.9802C68.5117 76.5504 68.7924 78.0065 68.5819 79.3574Z" fill="#285D2D"/>
  <path d="M46.722 5.29619L36.1782 10.5769C36.108 10.5945 36.0466 10.6295 35.9852 10.6733H35.9677C35.7045 10.8751 35.5642 11.2612 35.5642 11.8489V17.0682C31.152 14.5243 26.9941 13.0505 23.1169 12.647C22.9414 12.6295 22.7747 12.6208 22.5992 12.6033C19.0291 12.3226 15.8537 12.84 13.0818 14.1646L29.5906 5.92786C32.5906 4.21733 36.1168 3.51556 40.1431 3.83135C42.2571 3.99801 44.4501 4.48917 46.722 5.29619Z" fill="#162C15"/>
  <path d="M65.7134 21.6121C65.7134 22.6823 65.3713 23.4191 64.6695 23.8226L56.0818 28.7173L55.9502 28.7787L45.6608 33.9278L38.538 37.4892L45.3362 33.6121L47.1257 32.5945C47.8274 32.191 48.1695 31.4542 48.1695 30.3841C48.1695 29.3139 47.8274 28.1735 47.1257 26.9629L41.4765 17.2262L38.538 12.1559C37.959 11.1471 37.3099 10.6121 36.6081 10.542C36.4415 10.5244 36.301 10.5331 36.1782 10.577L46.7221 5.29623L53.6168 1.84014C53.7659 1.76997 53.9415 1.75246 54.152 1.77C54.8538 1.84018 55.5029 2.37524 56.0818 3.38401L64.6695 18.191C65.3713 19.4015 65.7134 20.542 65.7134 21.6121Z" fill="#162C15"/>
  <path d="M49.9677 39.5243L40.2483 44.384L39.8537 44.577C39.7923 44.6121 39.7309 44.6471 39.6695 44.691C38.0993 45.6822 37.3097 47.533 37.3097 50.2435C37.3097 51.1821 37.4326 52.1734 37.6607 53.2085C37.7747 53.7085 37.9062 54.1998 38.0641 54.6822L36.7835 55.3138L33.1958 57.112C33.4326 56.7173 33.5904 56.2874 33.6782 55.8313C33.7659 55.3839 33.8098 54.8577 33.8098 54.2524C33.7484 50.4015 32.266 46.9629 29.3449 43.9366C26.4239 40.9103 23.6519 38.5682 21.0203 36.9191C20.9151 36.8489 20.8185 36.7876 20.722 36.7437C20.4939 36.6209 20.2834 36.577 20.0904 36.5945H20.0817C19.9676 36.6033 19.8624 36.6208 19.7659 36.6735L30.3887 31.4103L35.301 28.9805C35.3887 29.0243 35.4765 29.077 35.5642 29.1296V34.3577C35.5642 35.2963 35.9151 36.1384 36.6081 36.8752C36.8537 37.1384 37.0993 37.3313 37.3361 37.4542C37.766 37.691 38.1607 37.6998 38.5379 37.4892L45.6607 33.9278C46.0642 34.3226 46.4765 34.7349 46.8888 35.1647C48.2046 36.5331 49.2309 37.9892 49.9677 39.5243Z" fill="#162C15"/>
  <path d="M33.108 68.1201C30.7133 67.0762 28.5993 66.6728 26.7572 66.9184C26.0028 67.0149 25.3274 67.2079 24.7222 67.4974L32.0291 63.8394L32.4327 63.6465C32.5029 64.0061 32.5643 64.3658 32.6257 64.7254C32.8187 65.8746 32.9765 67.006 33.108 68.1201Z" fill="#162C15"/>
  <path d="M32.4326 63.6467L32.029 63.8397L24.722 67.4976C23.8536 67.9011 23.1518 68.4977 22.5991 69.2872C19.6167 65.2258 17.2395 60.7871 15.4588 55.9713C13.6781 51.1555 12.7834 46.5415 12.7834 42.1117C12.7834 34.8749 15.0027 29.9976 19.4413 27.4625C19.5641 27.3923 19.687 27.3222 19.8185 27.2695C23.0641 25.5502 26.8097 25.4626 31.0465 26.9889C30.6956 28.331 30.4763 29.8046 30.3886 31.4099L19.7658 36.673C19.6606 36.7257 19.5729 36.7958 19.4852 36.8923C19.108 37.3046 19.0641 37.9713 19.3536 38.8748C19.4764 39.4099 19.5729 39.9537 19.6606 40.5064C19.7484 41.059 19.7922 41.6029 19.7922 42.138V46.1644C19.7922 48.3749 20.4852 50.6643 21.8536 53.0239C23.222 55.3923 24.8712 57.138 26.801 58.2432C27.6431 58.7344 28.4325 59.0327 29.1693 59.1467C29.1956 59.1555 29.2308 59.1643 29.2571 59.1643C30.0115 59.2608 30.7132 59.1994 31.3535 58.9714C31.7658 60.41 32.1168 61.9187 32.4063 63.4977C32.415 63.5503 32.4238 63.5941 32.4326 63.6467Z" fill="#A5E2AC"/>
  <path d="M74.2133 41.893C74.2133 43.5684 74.1079 45.5334 73.9062 47.7965C73.7044 50.0597 73.2395 52.0684 72.5027 53.8228C71.7746 55.5772 70.7132 56.8228 69.3097 57.5597C69.0992 57.6737 68.8799 57.7526 68.643 57.8052H68.6256L57.3098 63.5333L51.7658 66.3316C52.8536 65.7614 53.7396 64.8842 54.415 63.7C54.6168 63.3579 54.7922 62.9895 54.9588 62.5948C55.6957 60.8404 56.1606 58.8316 56.3623 56.5684C56.5553 54.3842 56.6607 52.472 56.6694 50.8404V50.6649C56.6694 49.9983 56.4063 49.393 55.88 48.8579C55.3536 48.3141 54.8887 48.1648 54.4764 48.3929C53.8361 48.6999 53.0642 48.6999 52.1607 48.4105C51.7484 48.2789 51.3361 48.1298 50.9414 47.9543C50.7045 47.8578 50.4764 47.7526 50.2483 47.6385C50.0203 47.5157 49.7922 47.4018 49.5729 47.2702L48.6343 46.7263L46.0729 45.2527C43.8009 43.9369 41.8623 43.6562 40.2483 44.3842L49.9677 39.5245L57.3975 35.8053C59.0905 34.8404 61.1606 35.0597 63.6167 36.4807L67.1167 38.4983C67.9325 38.972 68.801 39.3578 69.7045 39.6385C70.608 39.928 71.38 39.928 72.0203 39.621C72.4326 39.3929 72.8975 39.5421 73.4238 40.086C73.9501 40.6211 74.2133 41.2263 74.2133 41.893Z" fill="#162C15"/>
  <path d="M62.2045 68.7263L59.9501 69.8491C58.9326 70.4017 58.2747 71.4279 57.9852 72.9367C57.3975 76.0771 56.2923 78.621 54.6519 80.5596C53.608 81.7965 52.3975 82.7438 51.0203 83.4105C50.2396 83.7789 49.4063 84.0595 48.5203 84.2525C47.9852 82.8578 47.2835 81.4718 46.4238 80.0771C45.8975 79.2174 45.3098 78.3666 44.6694 77.507C42.9765 75.2614 41.0203 73.2614 38.801 71.507L48.7747 66.5157H48.7834C49.9501 66.8228 50.9413 66.7614 51.7658 66.3315L57.3098 63.5332C59.1344 65.0858 60.7659 66.814 62.2045 68.7263Z" fill="#A5E2AC"/>
  <path d="M48.7747 66.5149L38.801 71.5063C39.0905 69.2606 39.5027 67.2342 40.029 65.4272C40.5553 63.6202 41.0203 62.1992 41.4326 61.1641C42.073 62.0062 42.7835 62.7869 43.573 63.5062C44.3624 64.2342 45.1957 64.8484 46.0729 65.3484C47.0553 65.9185 47.9589 66.3044 48.7747 66.5149Z" fill="#162C15"/>
  <path d="M86.1256 70.5859C85.073 79.4192 81.4413 85.2175 75.222 87.954L59.0818 96.0242C61.88 94.4891 64.0817 92.2347 65.6782 89.2786C67.1519 86.5595 68.1169 83.2613 68.5818 79.3578C68.7923 78.0069 68.5116 76.5508 67.7485 74.9806C67.6432 74.7525 67.5292 74.5245 67.3976 74.2964C66.38 72.4718 65.108 71.1209 63.5905 70.2438C63.4238 70.1473 63.266 70.0595 63.1081 69.9894C61.9063 69.4104 60.8537 69.3666 59.9502 69.849L62.2046 68.7262L77.4941 61.0771C78.5204 60.5332 79.7308 60.656 81.1343 61.4718C82.6519 62.349 83.9239 63.6999 84.9414 65.5245C85.9677 67.3578 86.3625 69.042 86.1256 70.5859Z" fill="#162C15"/>
  <path d="M46.0729 53.2869C43.7395 54.6202 41.6957 56.3746 39.9413 58.5413C39.7309 58.8044 39.5203 59.0675 39.3186 59.3394C38.9852 59.778 38.6695 60.2167 38.3624 60.6728C37.2923 62.2606 36.3624 63.9272 35.5642 65.7167C35.187 64.6641 34.801 63.6465 34.4063 62.6553C33.6344 60.7167 32.8186 58.9009 31.9677 57.2079C30.687 54.6553 29.5466 52.6642 28.5554 51.2168C29.3712 52.094 30.1606 53.015 30.915 53.9886C31.6781 54.9623 32.4326 56.0062 33.1958 57.1114L36.7835 55.3132L38.0641 54.6816C38.222 55.2079 38.4151 55.7167 38.6255 56.2255C39.7923 55.5676 40.9939 54.9799 42.2132 54.4799C43.4413 53.9886 44.7308 53.5851 46.0729 53.2869Z" fill="#162C15"/>
</svg>