<svg width="36" height="43" viewBox="0 0 36 43" fill="none" xmlns="http://www.w3.org/2000/svg">
  <path d="M33.4 42.199H17.8C17.3403 42.199 16.8994 42.0163 16.5743 41.6913C16.2493 41.3662 16.0667 40.9253 16.0667 40.4656V36.999C16.0667 36.5392 16.2493 36.0984 16.5743 35.7733C16.8994 35.4482 17.3403 35.2656 17.8 35.2656H33.4C33.8597 35.2656 34.3006 35.4482 34.6256 35.7733C34.9507 36.0984 35.1333 36.5392 35.1333 36.999V40.4656C35.1333 40.9253 34.9507 41.3662 34.6256 41.6913C34.3006 42.0163 33.8597 42.199 33.4 42.199Z" fill="#A5E2AC"/>
  <path d="M33.4 0.599609H2.20001C1.7403 0.599609 1.29942 0.782227 0.974355 1.10729C0.649292 1.43235 0.466675 1.87323 0.466675 2.33294V5.79961C0.466675 6.25932 0.649292 6.7002 0.974355 7.02526C1.29942 7.35033 1.7403 7.53294 2.20001 7.53294H33.4C33.8597 7.53294 34.3006 7.35033 34.6257 7.02526C34.9507 6.7002 35.1333 6.25932 35.1333 5.79961V2.33294C35.1333 1.87323 34.9507 1.43235 34.6257 1.10729C34.3006 0.782227 33.8597 0.599609 33.4 0.599609Z" fill="#1DB5BE"/>
  <path d="M33.4 11H2.20001C1.7403 11 1.29942 11.1826 0.974355 11.5077C0.649292 11.8327 0.466675 12.2736 0.466675 12.7333V30.0667C0.466675 30.5264 0.649292 30.9673 0.974355 31.2923C1.29942 31.6174 1.7403 31.8 2.20001 31.8H33.4C33.8597 31.8 34.3006 31.6174 34.6257 31.2923C34.9507 30.9673 35.1333 30.5264 35.1333 30.0667V12.7333C35.1333 12.2736 34.9507 11.8327 34.6257 11.5077C34.3006 11.1826 33.8597 11 33.4 11Z" fill="#285D2D"/>
</svg>