<svg width="41" height="43" viewBox="0 0 41 43" fill="none" xmlns="http://www.w3.org/2000/svg">
  <path d="M19.1702 0.82832L0.415507 9.59032C0.288678 9.64848 0.181235 9.74186 0.105969 9.85935C0.030703 9.97684 -0.00921521 10.1135 -0.00903258 10.253C-0.00884995 10.3925 0.0314239 10.5291 0.106997 10.6464C0.182571 10.7637 0.290258 10.8568 0.417239 10.9146L19.3192 19.6125C19.8774 19.869 20.5222 19.869 21.0803 19.6125L39.9823 10.9146C40.1094 10.8569 40.2172 10.764 40.2929 10.6468C40.3686 10.5296 40.4091 10.3931 40.4094 10.2536C40.4098 10.114 40.3701 9.97734 40.295 9.85975C40.2198 9.74217 40.1125 9.64865 39.9858 9.59032L21.2294 0.82832C20.907 0.677683 20.5556 0.599609 20.1998 0.599609C19.844 0.599609 19.4925 0.677683 19.1702 0.82832V0.82832Z" fill="#285D2D"/>
  <path opacity="0.64" d="M39.9862 20.8378L36.1122 19.0282C35.8347 18.8986 35.5324 18.831 35.2261 18.8301C34.9199 18.8292 34.6172 18.895 34.339 19.023L21.0807 25.1244C20.8045 25.2513 20.5041 25.3171 20.2002 25.3171C19.8962 25.3171 19.5958 25.2513 19.3196 25.1244L6.05962 19.023C5.78166 18.8953 5.47922 18.8296 5.17332 18.8305C4.86741 18.8314 4.56536 18.8989 4.28816 19.0282L0.414154 20.8378C0.2874 20.8962 0.18008 20.9897 0.104967 21.1073C0.029854 21.2248 -0.00988425 21.3615 -0.00951899 21.5011C-0.00915373 21.6406 0.0312991 21.7771 0.107027 21.8943C0.182754 22.0115 0.290565 22.1044 0.417622 22.1621L19.3196 30.8582C19.5956 30.9859 19.8961 31.052 20.2002 31.052C20.5042 31.052 20.8047 30.9859 21.0807 30.8582L39.9827 22.1621C40.1097 22.1044 40.2176 22.0115 40.2933 21.8943C40.369 21.7771 40.4095 21.6406 40.4098 21.5011C40.4102 21.3615 40.3705 21.2248 40.2953 21.1073C40.2202 20.9897 40.1129 20.8962 39.9862 20.8378Z" fill="#A5E2AC"/>
  <path d="M39.9862 31.9857L36.1122 30.176C35.8348 30.0464 35.5324 29.9788 35.2262 29.9779C34.92 29.977 34.6172 30.0429 34.339 30.1708L21.0808 36.2705C20.8046 36.3974 20.5042 36.4632 20.2002 36.4632C19.8962 36.4632 19.5959 36.3974 19.3197 36.2705L6.05969 30.1691C5.78172 30.0414 5.47929 29.9757 5.17338 29.9766C4.86747 29.9775 4.56543 30.0449 4.28822 30.1743L0.414219 31.9857C0.287954 32.0442 0.181116 32.1377 0.106361 32.2551C0.0316067 32.3725 -0.00793067 32.5088 -0.00756586 32.648C-0.00720105 32.7872 0.033052 32.9234 0.108421 33.0404C0.18379 33.1574 0.291117 33.2503 0.417687 33.3082L19.3197 42.006C19.8778 42.2626 20.5226 42.2626 21.0808 42.006L39.9828 33.3082C40.1093 33.2503 40.2167 33.1574 40.292 33.0404C40.3674 32.9234 40.4076 32.7872 40.408 32.648C40.4084 32.5088 40.3688 32.3725 40.2941 32.2551C40.2193 32.1377 40.1125 32.0442 39.9862 31.9857Z" fill="#1DB5BE"/>
</svg>