<svg width="107" height="100" viewBox="0 0 107 100" fill="none" xmlns="http://www.w3.org/2000/svg">
  <path d="M46.5638 8.85031L39.4255 12.4247L25.2872 19.4886L18.1489 15.361L39.4255 4.72266L46.5638 8.85031Z" fill="#162C15"/>
  <path d="M46.5638 8.84961V10.9453L39.4255 14.5091L38.5851 14.9347L38.1915 15.1262C35.7234 16.4134 33.7979 18.5623 32.4255 21.5623C33.6808 25.7538 35.3936 29.7538 37.5638 33.573L32.5957 36.0517L28.8511 37.924V50.4772L25.2872 52.2538V19.4879L39.4255 12.424L46.5638 8.84961Z" fill="#A5E2AC"/>
  <path d="M62.0637 56.6806L50.2659 62.5849V62.8402L46.702 64.6168V52.3295L51.2127 50.0742C51.3935 50.2338 51.585 50.3934 51.7765 50.5423C53.5956 52.0104 55.468 53.2976 57.4042 54.4146C58.9999 55.3295 60.5531 56.0955 62.0637 56.6806Z" fill="#A5E2AC"/>
  <path d="M57.4042 66.7018V87.1805C57.4042 91.6911 56.0106 94.7336 53.2128 96.3293C50.4149 97.925 47.0532 97.5847 43.1276 95.3188L23.7659 84.1378L2.43616 47.2548L8.14892 43.7974L18.1489 52.9464V15.3613L25.2872 19.4889V52.2548L28.8511 54.3081V37.9251L35.9893 42.0527V58.4357L36.5 58.7336L39.5638 60.4995V48.2123L46.7021 52.3294V64.6165L50.2659 66.6804V62.5847L50.5 62.7229L57.4042 66.7018Z" fill="#285D2D"/>
  <path d="M78.6808 56.0621L57.4042 66.7005L50.4999 62.7217L50.2659 62.5834L62.0637 56.6791H62.0744C62.1701 56.7217 62.2552 56.7536 62.3403 56.7962C65.8935 58.1366 69.234 58.594 72.3829 58.1579C74.0744 57.9238 75.585 57.4238 76.9254 56.6685L78.4254 55.9238L78.6701 56.0621H78.6808Z" fill="#162C15"/>
  <path d="M45.9362 45.0309L39.5638 48.2117V56.6479L36.2553 58.3075L35.9894 58.4351V42.0522L38.0319 41.0309L39.4255 40.3394L41.3192 39.3926C41.6702 39.8819 42.0426 40.3713 42.4149 40.85C42.9575 41.5415 43.5 42.2224 44.0532 42.8713C44.6702 43.616 45.2979 44.3394 45.9362 45.0309Z" fill="#A5E2AC"/>
  <path d="M41.3192 39.3934L39.4255 40.3402L38.0319 41.0317L35.9894 42.0529L28.8511 37.9253L32.5958 36.0529L37.5638 33.5742C38.1489 34.6168 38.766 35.638 39.4255 36.6487C40.0319 37.5742 40.6596 38.4891 41.3192 39.3934Z" fill="#162C15"/>
  <path d="M78.6809 56.0625V76.5412C78.6809 81.0519 77.2872 84.0944 74.4894 85.6902L73.7234 86.0731L73.6064 86.1263L53.2128 96.3285C56.0106 94.7327 57.4043 91.6902 57.4043 87.1795V66.7008L78.6809 56.0625Z" fill="#162C15"/>
  <path d="M18.149 38.7969V52.9458L8.14905 43.7969L18.149 38.7969Z" fill="#A5E2AC"/>
  <path d="M80.3297 44.6689C78.9892 41.4561 77.351 38.371 75.4361 35.4029C74.4893 33.9455 73.4786 32.5199 72.3935 31.1263C70.1807 28.2646 67.8722 25.7327 65.468 23.5199C62.8935 21.1582 60.202 19.1689 57.4041 17.5519C56.8403 17.2327 56.2871 16.9242 55.7446 16.6476C52.5318 14.9987 49.468 14.0306 46.5637 13.754C45.1488 13.6051 43.7658 13.6263 42.4148 13.8178C41.3509 13.9668 40.3509 14.2114 39.4254 14.5731C39.1382 14.6795 38.8616 14.8072 38.585 14.9348L38.1914 15.1263C35.7233 16.4136 33.7978 18.5625 32.4254 21.5625C33.6807 25.754 35.3935 29.754 37.5637 33.5731C38.1488 34.6157 38.7658 35.637 39.4254 36.6476C40.0318 37.5731 40.6595 38.488 41.319 39.3923C41.6701 39.8816 42.0424 40.371 42.4148 40.8497C42.9573 41.5412 43.4999 42.2221 44.0531 42.871C44.6701 43.6157 45.2978 44.3391 45.9361 45.0306C47.6488 46.8923 49.4041 48.5731 51.2126 50.0731C51.3935 50.2327 51.585 50.3923 51.7765 50.5412C53.5956 52.0093 55.468 53.2965 57.4041 54.4136C58.9999 55.3285 60.5531 56.0944 62.0637 56.6795H62.0744C62.1701 56.7221 62.2552 56.754 62.3403 56.7965C65.8935 58.137 69.2339 58.5944 72.3829 58.1582C74.0744 57.9242 75.585 57.4242 76.9254 56.6689C77.3829 56.4136 77.819 56.1263 78.2339 55.8072C79.9467 54.5199 81.319 52.7221 82.3829 50.4136C81.7978 48.4561 81.1063 46.5412 80.319 44.6689H80.3297ZM66.2552 42.5519C65.9999 44.6476 65.1701 46.0944 63.7446 46.9136C62.8722 47.4029 61.9041 47.5944 60.8403 47.4668C59.9999 47.3816 59.1063 47.0944 58.1488 46.6051H58.1382C57.8935 46.4987 57.6488 46.371 57.4041 46.2221C57.3616 46.1902 57.3084 46.1689 57.2658 46.137C55.468 45.0731 53.8722 43.6051 52.4892 41.7434C51.9892 41.0731 51.5212 40.3604 51.0744 39.5944C50.7126 38.9774 50.3935 38.371 50.1275 37.7646C49.7552 36.988 49.4467 36.2114 49.2126 35.4348C48.7233 33.8923 48.4786 32.3497 48.4786 30.8285C48.4786 29.7114 48.6063 28.7434 48.8722 27.9136C49.2871 26.6051 50.0105 25.6582 51.0744 25.0519C52.7978 24.0731 54.9041 24.3072 57.4041 25.7434C57.9361 26.0519 58.4467 26.3923 58.9467 26.7753C60.7871 28.1582 62.3829 30.0306 63.7446 32.371C65.2339 34.9455 66.085 37.4774 66.2765 39.9774C66.3084 40.2221 66.319 40.4774 66.3084 40.7327C66.3297 40.871 66.3297 40.9987 66.3297 41.137C66.3297 41.637 66.3084 42.1051 66.2552 42.5519Z" fill="#285D2D"/>
  <path d="M103.67 39.7756L88.3511 47.4352H88.3404L82.3936 50.4139C81.8085 48.4565 81.117 46.5416 80.3298 44.6693C78.9894 41.4565 77.3511 38.3714 75.4362 35.4033C74.4894 33.9459 73.4787 32.5203 72.3936 31.1267C70.1809 28.265 67.8723 25.7331 65.4681 23.5203C62.8936 21.1586 60.2021 19.1693 57.4043 17.5522C56.8404 17.2331 56.2872 16.9246 55.7447 16.648C52.5319 14.999 49.4681 14.031 46.5638 13.7544C45.1489 13.6054 43.766 13.6267 42.4149 13.8182C41.3511 13.9671 40.3511 14.2118 39.4255 14.5735V14.5097L46.5638 10.9459L59.0638 4.71177L60.1489 4.16922C61.234 3.67986 62.4149 3.36071 63.6915 3.17986C68.2766 2.54156 73.266 3.78625 78.6809 6.91391C84.0957 10.0416 89.0958 14.5629 93.6702 20.4884C98.2553 26.4033 101.585 32.8395 103.67 39.7756Z" fill="#285D2D"/>
  <path d="M66.3296 41.1372C66.3296 41.6372 66.3083 42.1053 66.2551 42.5521C65.9998 44.6478 65.17 46.0946 63.7445 46.9138C62.8721 47.4031 61.904 47.5946 60.8402 47.467C59.9998 47.3819 59.1062 47.0946 58.1487 46.6053H58.1381C57.8934 46.4989 57.6487 46.3712 57.404 46.2223C57.3615 46.1904 57.3083 46.1691 57.2657 46.1372C55.4679 45.0733 53.8721 43.6053 52.4892 41.7436C51.9892 41.0733 51.5211 40.3606 51.0743 39.5946C50.7126 38.9776 50.3934 38.3712 50.1275 37.7648C49.7551 36.9882 49.4466 36.2116 49.2126 35.435C48.7232 33.8925 48.4785 32.3499 48.4785 30.8287C48.4785 29.7116 48.6062 28.7436 48.8721 27.9138C49.287 26.6053 50.0104 25.6585 51.0743 25.0521C52.7977 24.0733 54.904 24.3074 57.404 25.7436C57.936 26.0521 58.4466 26.3925 58.9466 26.7755L53.9466 29.2861L53.7551 29.3819H53.7445L53.6168 29.4457C52.5743 30.0414 52.053 31.1904 52.053 32.8925C52.053 33.2542 52.0743 33.6159 52.1275 33.9882C52.2977 35.3499 52.7977 36.7329 53.6168 38.1478C54.1062 38.9989 54.6487 39.7329 55.2445 40.3712C55.8615 41.0414 56.5317 41.6053 57.2657 42.0414C57.3083 42.0733 57.3615 42.0946 57.404 42.1265C58.7232 42.8925 59.8721 43.0733 60.8402 42.6904C60.9679 42.6478 61.0849 42.584 61.2019 42.5202L65.6062 40.318L66.2764 39.9776C66.3083 40.2223 66.3189 40.4776 66.3083 40.7329C66.3296 40.8712 66.3296 40.9989 66.3296 41.1372Z" fill="#162C15"/>
  <path d="M66.2764 39.9775L65.6062 40.3179L61.202 42.5201C62.2445 41.935 62.7552 40.786 62.7552 39.0733C62.7552 38.935 62.7552 38.8073 62.7445 38.669C62.6701 37.0945 62.1594 35.4775 61.202 33.8179C60.1594 32.0307 58.8935 30.7009 57.4041 29.8392C56.0637 29.0626 54.9147 28.8818 53.9467 29.286L58.9467 26.7754C60.7871 28.1584 62.3828 30.0307 63.7445 32.3711C65.2339 34.9456 66.085 37.4775 66.2764 39.9775Z" fill="#A5E2AC"/>
  <path d="M62.7554 39.0744C62.7554 40.7872 62.2447 41.9361 61.2022 42.5212C61.0851 42.585 60.9681 42.6489 60.8405 42.6914C59.8724 43.0744 58.7234 42.8935 57.4043 42.1276C57.3617 42.0957 57.3085 42.0744 57.266 42.0425C56.5319 41.6063 55.8617 41.0425 55.2447 40.3723C54.649 39.734 54.1064 38.9999 53.6171 38.1489C52.7979 36.734 52.2979 35.351 52.1277 33.9893C52.0745 33.617 52.0532 33.2553 52.0532 32.8936C52.0532 31.1914 52.5745 30.0425 53.6171 29.4467L53.7447 29.3829H53.7554L53.9468 29.2872C54.9149 28.8829 56.0639 29.0638 57.4043 29.8404C58.8937 30.7021 60.1596 32.0318 61.2022 33.8191C62.1596 35.4787 62.6702 37.0957 62.7447 38.6701C62.7554 38.8084 62.7554 38.9361 62.7554 39.0744Z" fill="#A5E2AC" stroke="black"/>
  <path d="M103.67 39.7754C102.17 43.0201 100.042 45.2649 97.2657 46.5095L78.4359 55.9243L76.9359 56.6691C77.3934 56.4138 77.8295 56.1265 78.2444 55.8073C79.9572 54.5201 81.3295 52.7222 82.3934 50.4137L88.3402 47.435H88.3508L103.67 39.7754Z" fill="#162C15"/>
  <path d="M39.6702 48.1998L45.5212 45.2129L51.3723 50.1638L46.9143 52.1278L39.6702 48.1998Z" fill="#162C15"/>
</svg>