<svg width="80" height="101" viewBox="0 0 80 101" fill="none" xmlns="http://www.w3.org/2000/svg">
  <path d="M58.637 44.7561V69.645C58.6092 73.7099 58.1278 77.4136 57.1926 80.7469C56.3685 83.6728 55.2389 86.2839 53.7944 88.5895C53.5537 88.9876 53.3037 89.3673 53.0352 89.7469L52.2389 88.3765L42.7666 72.0432L42.7018 71.9228C43.3407 71.0247 43.8222 69.9784 44.1463 68.7932C44.4703 67.608 44.6278 66.2747 44.6278 64.8024C44.6278 63.5154 44.5074 62.2098 44.2759 60.895C44.1926 60.4228 44.0907 59.9413 43.9796 59.4599C43.3222 56.7191 42.1648 53.9228 40.5074 51.071C39.0815 48.608 37.4981 46.4784 35.7759 44.7006C35.424 44.3395 35.0722 43.9969 34.7203 43.6636C33.4333 42.4784 32.0629 41.4691 30.6185 40.6358C27.4148 38.7932 24.6 38.2469 22.1648 39.0154C21.674 39.1636 21.1926 39.3765 20.7203 39.645C17.9796 41.2099 16.6092 44.2006 16.6092 48.6265C16.6092 53.0524 17.9796 57.6173 20.7203 62.3487C23.4703 67.0802 26.7666 70.5617 30.6185 72.7839C31.8407 73.4969 33.0537 74.0061 34.2481 74.3302C35.387 74.6358 36.4518 74.7376 37.4426 74.6358C37.4981 74.6265 37.5629 74.6265 37.6185 74.6173L38.3963 75.9599L48.9148 94.0063C48.0722 94.6452 47.1926 95.21 46.2852 95.6823L45.2944 96.1823C43.8315 96.8674 42.2852 97.3582 40.6463 97.6637C37.5815 98.2378 34.2389 97.9878 30.6185 96.9045C22.5074 89.8673 15.8037 80.6636 10.5259 69.2747C5.23886 57.8858 2.59998 47.0987 2.59998 36.9136V12.4043L21.1185 15.1265L30.6185 16.5247L43.4333 29.4321L58.637 44.7561Z" fill="#285D2D"/>
  <path d="M44.1554 68.7948C43.8314 69.98 43.3499 71.0263 42.711 71.9245L42.7758 72.0448L37.6277 74.6189C37.5721 74.6282 37.5073 74.6282 37.4517 74.6374C36.461 74.7393 35.3962 74.6374 34.2573 74.3319C33.0629 74.0078 31.8499 73.4985 30.6277 72.7856C26.7758 70.5634 23.4795 67.0819 20.7295 62.3504C17.9888 57.6189 16.6184 53.0448 16.6184 48.6282C16.6184 44.2115 17.9888 41.2115 20.7295 39.6467C21.2017 39.3782 21.6832 39.1652 22.174 39.0171C24.6091 38.2485 27.424 38.7948 30.6277 40.6374C32.0721 41.4708 33.4425 42.48 34.7295 43.6652L26.1184 47.9708L25.6832 48.1837C25.3036 48.3967 24.9703 48.6745 24.7017 48.9985C23.9795 49.8504 23.6184 51.0726 23.6184 52.6652C23.6184 54.8782 24.3036 57.1652 25.6832 59.5356C27.0536 61.8967 28.7017 63.6374 30.6277 64.7485C30.9888 64.9615 31.3406 65.1374 31.6832 65.2763C33.1647 65.8874 34.461 65.8782 35.5721 65.2485L44.2851 60.8968C44.5166 62.2116 44.6369 63.5171 44.6369 64.8041C44.6369 66.2763 44.4795 67.6097 44.1554 68.7948Z" fill="#162C15"/>
  <path d="M37.6184 60.7571C37.6184 62.9701 36.9332 64.4608 35.5628 65.2479C34.4517 65.8775 33.1554 65.8867 31.6739 65.2756C31.3314 65.1367 30.9795 64.9608 30.6184 64.7479C28.6925 63.6367 27.0443 61.896 25.6739 59.5349C24.2943 57.1645 23.6091 54.8775 23.6091 52.6645C23.6091 51.0719 23.9702 49.8497 24.6925 48.9979C24.961 48.6738 25.2943 48.396 25.6739 48.183L26.1091 47.9701C27.3869 47.4423 28.8869 47.6738 30.6184 48.6738C32.5443 49.7849 34.1925 51.5256 35.5628 53.8867C36.9332 56.2571 37.6184 58.5442 37.6184 60.7571Z" fill="#A5E2AC"/>
  <path d="M37.6184 60.7567C37.6184 58.5437 36.9332 56.2567 35.5628 53.8863C34.1925 51.5252 32.5443 49.7844 30.6184 48.6733C28.8869 47.6733 27.3869 47.4418 26.1091 47.9696L34.7202 43.6641C35.0721 43.9974 35.4239 44.34 35.7758 44.7011C37.498 46.4789 39.0814 48.6085 40.5073 51.0715C42.1647 53.9233 43.3221 56.7196 43.9795 59.4604C44.0906 59.9418 44.1925 60.4233 44.2758 60.8955L35.5628 65.2474C36.9332 64.4604 37.6184 62.9696 37.6184 60.7567Z" fill="#A5E2AC"/>
  <path d="M67.4335 84.7466L61.0075 87.9596L48.9149 94.0062L38.3964 75.9595L37.6187 74.6169L42.7761 72.043L52.2483 88.3763L53.0353 89.7467L55.1649 88.6818L66.4427 83.043L67.4335 84.7466Z" fill="#A5E2AC"/>
  <path d="M77.1555 35.498V60.0166C77.1555 64.2295 76.674 68.0536 75.7111 71.4888C74.7481 74.9147 73.3592 77.9147 71.5537 80.4888L66.4426 83.0443L55.1648 88.6832L53.0352 89.748C53.3037 89.3684 53.5537 88.9888 53.7944 88.5906C55.2389 86.2851 56.3685 83.674 57.1926 80.748C58.1277 77.4147 58.6092 73.711 58.637 69.6462V44.7573L60.1833 43.9795L77.1555 35.498Z" fill="#162C15"/>
  <path d="M49.137 7.26686L30.6185 16.5262L21.1185 15.128L2.59998 12.4058L21.1185 3.14648L49.137 7.26686Z" fill="#162C15"/>
  <path d="M77.1556 35.4971L60.1926 43.9786L58.6371 44.7564L43.4333 29.4323L30.6185 16.5249L49.1371 7.26562L77.1556 35.4971Z" fill="#162C15"/>
</svg>