<svg width="42" height="42" viewBox="0 0 42 42" fill="none" xmlns="http://www.w3.org/2000/svg">
  <g clip-path="url(#clip0_5069_2733)">
    <path d="M31.2001 17.5329H41.6001L36.4001 10.5996L31.2001 17.5329ZM31.2001 24.4663H41.6001L36.4001 31.3996L31.2001 24.4663Z" fill="#C4B5FD"/>
    <path d="M1.73346 0.199219H12.1335V41.7992H1.73346C1.27375 41.7992 0.832865 41.6166 0.507802 41.2915C0.182739 40.9665 0.00012207 40.5256 0.00012207 40.0659V1.93255C0.00012207 1.47284 0.182739 1.03196 0.507802 0.706899C0.832865 0.381836 1.27375 0.199219 1.73346 0.199219Z" fill="#285D2D"/>
    <path d="M15.6001 0.199219H26.0001C26.4598 0.199219 26.9007 0.381836 27.2258 0.706899C27.5508 1.03196 27.7334 1.47284 27.7334 1.93255V40.0659C27.7334 40.5256 27.5508 40.9665 27.2258 41.2915C26.9007 41.6166 26.4598 41.7992 26.0001 41.7992H15.6001V0.199219Z" fill="#1DB5BE"/>
  </g>
  <defs>
    <clipPath id="clip0_5069_2733">
      <rect width="41.6" height="41.6" fill="white" transform="translate(0 0.199219)"/>
    </clipPath>
  </defs>
</svg>