<svg width="72" height="101" viewBox="0 0 72 101" fill="none" xmlns="http://www.w3.org/2000/svg">
  <path d="M42.7515 96.5504C42.7515 97.4939 42.4693 98.131 41.9128 98.4455C41.3564 98.7681 40.6628 98.6874 39.8402 98.2116C39.0177 97.7358 38.3241 97.0181 37.7677 96.0504C37.2031 95.0907 36.929 94.1391 36.929 93.1874C36.929 92.2358 37.2031 91.6149 37.7677 91.2923L37.937 91.2116C38.4612 90.9939 39.0983 91.1068 39.8402 91.5342C40.6628 92.01 41.3564 92.7278 41.9128 93.6874C42.4693 94.6471 42.7515 95.6068 42.7515 96.5504Z" fill="#285D2D"/>
  <path d="M19.4692 83.107C19.4692 84.0586 19.1869 84.6876 18.6305 85.0102C18.074 85.3247 17.3805 85.2441 16.5579 84.7683C15.7353 84.2925 15.0418 83.5747 14.4853 82.615C13.9289 81.6473 13.6466 80.6956 13.6466 79.7521C13.6466 78.8085 13.9289 78.1714 14.4853 77.8569L14.6547 77.7762C15.1789 77.5585 15.816 77.6633 16.5579 78.0908C17.3805 78.5666 18.074 79.2843 18.6305 80.2521C19.1869 81.2117 19.4692 82.1634 19.4692 83.107Z" fill="#285D2D"/>
  <path d="M31.1063 89.8332C31.1063 90.7768 30.832 91.4058 30.2675 91.7284C29.711 92.0429 29.0255 91.9703 28.1949 91.4945C27.3723 91.0106 26.6788 90.2929 26.1223 89.3332C25.5659 88.3735 25.2917 87.4139 25.2917 86.4703C25.2917 85.5268 25.5659 84.8897 26.1223 84.5752L26.3159 84.4784C26.8401 84.2848 27.4691 84.3897 28.1949 84.809C29.0255 85.2848 29.711 86.0106 30.2675 86.9703C30.832 87.93 31.1063 88.8816 31.1063 89.8332Z" fill="#285D2D"/>
  <path d="M53.2595 45.189C53.195 45.2535 53.1305 45.318 53.0579 45.3745C52.9934 45.4309 52.9127 45.4793 52.8401 45.5197L52.7757 45.5519C52.3483 45.7777 51.8402 45.8019 51.2596 45.6164C48.9289 44.8826 46.5579 44.0116 44.1305 43.0035C41.703 41.9955 39.3079 40.9148 36.9289 39.7616V76.4955C36.9289 77.439 36.6467 78.0761 36.0902 78.3906C35.5338 78.7132 34.8401 78.6326 34.0176 78.1568C33.7756 78.0197 33.5418 77.8503 33.3241 77.6648C32.8886 77.31 32.5015 76.8745 32.1628 76.3503C32.0902 76.2374 32.0176 76.1164 31.945 75.9955C31.3885 75.0358 31.1064 74.0842 31.1064 73.1326V56.439L25.2918 53.0761V69.7777C25.2918 70.7213 25.0096 71.3503 24.4531 71.6729C23.8967 71.9874 23.2031 71.9148 22.3805 71.439C21.5499 70.9551 20.8643 70.2374 20.3079 69.2777C19.7434 68.318 19.4692 67.3584 19.4692 66.4148V29.6809C17.0901 28.0922 14.6869 26.3987 12.2676 24.6084C9.84014 22.818 7.46115 20.9471 5.13857 18.9874C4.30793 18.2939 3.64663 17.3745 3.13856 16.2455C2.62244 15.1164 2.4934 14.1487 2.73534 13.3422C2.8805 12.8745 3.11437 12.5358 3.44502 12.3422L3.55791 12.2858C3.75952 12.189 3.99339 12.1406 4.25952 12.1406C5.04177 12.1406 5.86436 12.5116 6.73533 13.2374C10.1305 16.0277 13.6627 18.6809 17.324 21.1809C20.9853 23.689 24.6063 25.9713 28.195 28.0439C30.6466 29.4551 33.1143 30.7938 35.5982 32.0438C36.7514 32.6326 37.9127 33.189 39.074 33.7374C42.7353 35.4632 46.2676 36.8906 49.6627 38.0197C50.5337 38.2938 51.3563 38.8826 52.1305 39.7777C52.5014 40.2051 52.8079 40.6487 53.0579 41.1164C53.3321 41.6326 53.5337 42.1809 53.6627 42.7455C53.9047 43.8342 53.7676 44.6487 53.2595 45.189Z" fill="#285D2D"/>
  <path d="M19.4692 83.1068C19.4692 82.1633 19.1869 81.2118 18.6305 80.2521C18.074 79.2843 17.3805 78.5666 16.5579 78.0908C15.816 77.6634 15.1789 77.5585 14.6547 77.7763L30.6143 69.7924C30.7676 69.7037 30.9289 69.6472 31.1063 69.623V73.1311C31.1063 74.0827 31.3885 75.0343 31.945 75.994C32.0176 76.115 32.0901 76.2359 32.1627 76.3489C32.5014 76.873 32.8885 77.3085 33.324 77.6634L18.6305 85.0101C19.1869 84.6875 19.4692 84.0584 19.4692 83.1068Z" fill="#A5E2AC"/>
  <path d="M50.1467 13.3253C50.1467 15.1559 49.5741 16.4059 48.437 17.0511L48.0822 17.2285L43.5257 19.5108L35.5983 23.4705L32.308 25.1156C33.4451 24.4705 34.0176 23.2205 34.0176 21.3898C34.0176 21.0995 34.0015 20.8092 33.9693 20.5189C33.8241 18.9543 33.2676 17.3414 32.308 15.6801C31.1709 13.7205 29.7999 12.2769 28.1951 11.3495C26.7596 10.5189 25.5096 10.3253 24.4451 10.7608L27.8242 9.0753L40.2193 2.87368C41.3564 2.22046 42.7273 2.35755 44.3241 3.28497C45.9289 4.21239 47.2999 5.65594 48.437 7.61562C49.5741 9.58337 50.1467 11.4866 50.1467 13.3253Z" fill="#A5E2AC"/>
  <path d="M69.3885 37.1246C69.2353 37.2859 69.0659 37.4149 68.8804 37.5036L68.8159 37.5359L53.0579 45.4149V45.3746C53.1304 45.3181 53.195 45.2536 53.2595 45.1891C53.7675 44.6488 53.9046 43.8343 53.6627 42.7456C53.5337 42.181 53.3321 41.6327 53.0579 41.1165C52.8079 40.6488 52.5014 40.2052 52.1304 39.7778C51.3563 38.8827 50.5337 38.2939 49.6627 38.0198C46.2675 36.8907 42.7353 35.4633 39.074 33.7375C37.9127 33.1891 36.7514 32.6327 35.5982 32.0439C33.1143 30.7939 30.6466 29.4552 28.195 28.0439C24.6062 25.9714 20.9853 23.6891 17.324 21.181C13.6627 18.681 10.1304 16.0278 6.73528 13.2375C5.86431 12.5117 5.04173 12.1407 4.25947 12.1407C3.99335 12.1407 3.75947 12.1891 3.55786 12.2859L19.5417 4.30198L19.6385 4.25359C19.8482 4.13262 20.0982 4.07617 20.3885 4.07617C21.1708 4.07617 21.9933 4.44714 22.8643 5.17295C24.4853 6.50359 26.1385 7.81004 27.824 9.0762L24.445 10.7617L24.0901 10.9391C23.5498 11.2456 23.1385 11.681 22.8643 12.2536C22.5417 12.8907 22.3804 13.6972 22.3804 14.6649C22.3804 16.5036 22.945 18.4068 24.0901 20.3746C25.2272 22.3343 26.5982 23.7859 28.195 24.7052C29.7998 25.6327 31.1708 25.7698 32.3079 25.1165L35.5982 23.4714L43.5256 19.5117C43.7917 19.673 44.0579 19.8262 44.324 19.9794C47.9127 22.052 51.5417 23.9552 55.203 25.673C58.8643 27.3988 62.3966 28.8262 65.7917 29.9552C66.6627 30.2294 67.4853 30.8181 68.2595 31.7133C69.0417 32.6085 69.5498 33.6004 69.7917 34.681C70.0337 35.7698 69.8966 36.5843 69.3885 37.1246Z" fill="#162C15"/>
  <path d="M53.0579 45.4149V68.4311C53.0579 69.3746 52.7757 70.0117 52.2192 70.3262L52.0499 70.4069L36.0902 78.3908C36.6467 78.0762 36.9289 77.4391 36.9289 76.4956V39.7617C39.3079 40.9149 41.7031 41.9956 44.1305 43.0037C46.558 44.0117 48.9289 44.8827 51.2596 45.6166C51.8402 45.802 52.3483 45.7778 52.7757 45.552L52.8401 45.5198L53.0579 45.4149Z" fill="#162C15"/>
  <path d="M31.1065 56.4391V68.3504L24.4532 71.6729C25.0097 71.3504 25.2919 70.7213 25.2919 69.7778V53.0762L31.1065 56.4391Z" fill="#162C15"/>
  <path d="M47.2353 81.7691C47.2353 82.7126 46.961 83.3416 46.3965 83.6642L46.2272 83.7449L30.2674 91.7287C30.832 91.4061 31.1062 90.7771 31.1062 89.8336C31.1062 88.89 30.832 87.9303 30.2674 86.9707C29.711 86.011 29.0255 85.2852 28.1949 84.8094C27.4691 84.39 26.8401 84.2852 26.3159 84.4787L42.2513 76.5109C42.8078 76.1964 43.5013 76.269 44.3239 76.7448C45.1545 77.2206 45.84 77.9464 46.3965 78.9061C46.961 79.8657 47.2353 80.8174 47.2353 81.7691Z" fill="#A5E2AC"/>
  <path d="M58.8806 88.4861C58.8806 89.4297 58.5983 90.0668 58.0419 90.3813L41.9128 98.4458C42.4693 98.1313 42.7515 97.4942 42.7515 96.5506C42.7515 95.6071 42.4693 94.6474 41.9128 93.6877C41.3564 92.7281 40.6628 92.0103 39.8402 91.5345C39.0983 91.1071 38.4612 90.9942 37.937 91.2119L53.8725 83.2442L53.9693 83.1958C54.5096 82.9216 55.1789 83.0184 55.9693 83.47C56.7919 83.9458 57.4854 84.6635 58.0419 85.6232C58.5983 86.5829 58.8806 87.5426 58.8806 88.4861Z" fill="#A5E2AC"/>
  <path d="M24.2031 20.3578C22.4166 17.1428 22.4558 13.7718 22.9934 12.2933C26.2192 6.64841 35.8966 17.9377 33.4773 23.1796C31.5529 27.3491 26.2192 23.9861 24.2031 20.3578Z" fill="#285D2D" stroke="black"/>
</svg>