<svg width="77" height="101" viewBox="0 0 77 101" fill="none" xmlns="http://www.w3.org/2000/svg">
  <path d="M56.7084 94.1864L51.6585 85.4781C52.2502 84.7531 52.6918 83.9032 52.9835 82.9116C53.2835 81.9199 53.4252 80.8032 53.4252 79.5449C53.4252 75.9282 52.3251 72.2116 50.1167 68.4032C47.9084 64.5866 45.2252 61.7699 42.0668 59.9532C41.3335 59.5282 40.6251 59.1866 39.9417 58.9282C37.9834 58.1949 36.2417 58.1366 34.7084 58.7616L34.0168 59.1032C33.9002 59.1699 33.7834 59.2449 33.6751 59.3116C32.4667 60.1199 31.6251 61.3116 31.1584 62.9032C31.1084 63.0532 31.0668 63.2199 31.0335 63.3782C30.8168 64.2866 30.7085 65.3032 30.7085 66.4282C30.7085 69.3366 31.4167 72.2949 32.8417 75.3282C33.1917 76.0699 33.5835 76.8199 34.0168 77.5782C36.2252 81.3866 38.9085 84.2031 42.0668 86.0197C43.1585 86.6531 44.2084 87.0947 45.2251 87.3364C46.2334 87.5864 47.2001 87.6364 48.1251 87.4947L53.1752 96.2031C53.6335 97.0031 54.2251 97.6031 54.9417 98.0197C55.6584 98.4364 56.2501 98.5031 56.7084 98.2447C57.1751 97.9781 57.4001 97.4364 57.4001 96.6197C57.4001 95.8031 57.1751 94.9864 56.7084 94.1864ZM46.5502 80.7199C45.3252 81.4116 43.8335 81.2532 42.0668 80.2282C40.3002 79.2116 38.8085 77.6449 37.5835 75.5449C37.1835 74.8532 36.8501 74.1616 36.5917 73.4782C36.0334 72.0866 35.7584 70.7032 35.7584 69.3449C35.7584 68.6032 35.8418 67.9532 36.0085 67.3949C36.2835 66.4116 36.8085 65.7032 37.5835 65.2616C38.8085 64.5616 40.3002 64.7282 42.0668 65.7449C43.1418 66.3616 44.1168 67.1866 44.9835 68.2116C45.5502 68.8699 46.0752 69.6116 46.5502 70.4282C47.7668 72.5366 48.3751 74.6032 48.3751 76.6282C48.3751 78.6532 47.7668 80.0199 46.5502 80.7199Z" fill="#285D2D"/>
  <path d="M74.0665 88.2862C74.0665 89.1029 73.8415 89.6445 73.3749 89.9112L73.2331 89.9779L56.7082 98.2445C57.1749 97.9779 57.3998 97.4362 57.3998 96.6195C57.3998 95.8029 57.1749 94.9862 56.7082 94.1862L51.6582 85.4779L64.1664 79.2195H64.1748L68.3249 77.1445L73.3749 85.8529C73.8415 86.6529 74.0665 87.4612 74.0665 88.2862Z" fill="#162C15"/>
  <path d="M48.375 76.6297C48.375 78.663 47.7666 80.0214 46.55 80.7214C45.325 81.413 43.8333 81.2547 42.0666 80.2297C40.3 79.213 38.8083 77.6465 37.5833 75.5465C37.1833 74.8548 36.85 74.163 36.5916 73.4797C36.0333 72.088 35.7583 70.7048 35.7583 69.3464C35.7583 68.6048 35.8416 67.9548 36.0083 67.3964C36.2833 66.4131 36.8083 65.7047 37.5833 65.263C38.8083 64.563 40.3 64.7297 42.0666 65.7464C43.1416 66.363 44.1166 67.188 44.9833 68.213C45.55 68.8714 46.075 69.613 46.55 70.4297C47.7666 72.538 48.375 74.6047 48.375 76.6297Z" fill="#A5E2AC"/>
  <path d="M28.242 76.9952C28.417 76.2952 28.3087 75.4952 27.9254 74.6035C27.592 73.7285 27.1087 73.0202 26.4754 72.4618C25.8504 71.9035 25.2587 71.6618 24.7087 71.7285C24.1254 71.8285 23.4838 71.7952 22.7838 71.6285C22.0921 71.4702 21.3671 71.1785 20.6088 70.7368C18.5004 69.5202 16.7171 67.6452 15.2421 65.1035C13.7671 62.5618 13.0337 60.0868 13.0337 57.6702V31.6035L24.6504 38.3035L28.1838 40.3452V42.4952L24.6504 44.2618L21.4837 45.8452L21.3338 45.9202C20.8504 46.1952 20.6088 46.7452 20.6088 47.5618C20.6088 48.3785 20.8504 49.2118 21.3338 50.0452C21.8171 50.8785 22.417 51.5035 23.1337 51.9202L25.8921 53.5035L27.4838 54.4285L26.4421 54.9535L21.4837 57.4285L21.3338 57.5035C20.8504 57.7785 20.6088 58.3285 20.6088 59.1535C20.6088 59.9785 20.8504 60.7952 21.3338 61.6368C21.8171 62.4702 22.417 63.0952 23.1337 63.5035L25.6588 64.9618C26.3754 65.3785 26.9754 65.4452 27.4588 65.1702L31.0338 63.3868C30.8171 64.2868 30.7088 65.3035 30.7088 66.4285C30.7088 69.3368 31.417 72.2952 32.842 75.3285L27.8671 77.7785C28.0421 77.5868 28.167 77.3202 28.242 76.9952Z" fill="#162C15"/>
  <path d="M44.6167 53.8045L40.7667 55.7296L34.7084 58.7628L34.0167 59.1045C33.9001 59.1711 33.7834 59.2461 33.6751 59.3128C32.4667 60.1211 31.6251 61.3128 31.1584 62.9045C31.1084 63.0545 31.0668 63.2212 31.0335 63.3796L27.4584 65.1711C27.9417 64.8961 28.1834 64.3461 28.1834 63.5211C28.1834 62.6961 27.9417 61.8712 27.4584 61.0379C26.9751 60.2046 26.3751 59.5795 25.6584 59.1711L23.1334 57.7128C22.4917 57.3378 21.9417 57.2461 21.4834 57.4295L26.4418 54.9545L27.4835 54.4295L28.1834 54.8295C29.3251 55.4961 30.3251 55.6878 31.2001 55.4211C31.3917 55.3628 31.5751 55.2878 31.7501 55.1878L37.5334 52.2961L41.4583 50.3379L42.3251 50.8378C43.0417 51.2461 43.6417 51.8712 44.1251 52.7046C44.3417 53.0712 44.5001 53.4378 44.6167 53.8045Z" fill="#A5E2AC" stroke="black"/>
  <path d="M28.1834 42.4961V49.0378L24.6667 47.0044L23.1334 46.1211C22.4917 45.7544 21.9417 45.6628 21.4834 45.8461L24.6501 44.2628L28.1834 42.4961Z" fill="#162C15"/>
  <path d="M21.8333 62.6839C20.9999 62.0591 20.4444 60.045 20.5833 59.3506C20.5833 56.8511 21.8333 57.2672 24.3333 58.5172C26.8332 59.7672 28.0833 61.0177 28.0833 63.5172C28.0833 65.1839 27.1944 65.6389 26.5 65.5C25.5278 65.0833 23.1667 63.6837 21.8333 62.6839Z" fill="#285D2D"/>
  <path d="M38.2837 34.5871V40.3871C38.2837 40.9455 38.2253 41.4371 38.1003 41.8705C37.8753 42.6705 37.4419 43.2538 36.8003 43.6205C35.8086 44.1871 34.6169 44.0621 33.2336 43.2621V51.9538C33.2336 53.5455 32.7337 54.6287 31.7503 55.1871C31.5753 55.2871 31.392 55.3621 31.2003 55.4204C30.3253 55.6871 29.3253 55.4955 28.1837 54.8288L27.4837 54.4287L25.892 53.5038L23.1336 51.9205C22.4169 51.5038 21.817 50.8788 21.3337 50.0455C20.8503 49.2121 20.6087 48.3871 20.6087 47.5621C20.6087 46.7371 20.8503 46.1954 21.3337 45.9204L21.4836 45.8455C21.9419 45.6621 22.4919 45.7538 23.1336 46.1205L24.667 47.0038L28.1837 49.0371V40.3454L24.6503 38.3038L13.0336 31.6038V57.6705C13.0336 60.0871 13.7669 62.5621 15.2419 65.1038C16.7169 67.6455 18.5003 69.5204 20.6087 70.7371C21.367 71.1787 22.092 71.4705 22.7837 71.6288C23.4837 71.7955 24.1253 71.8287 24.7086 71.7287C25.2586 71.6621 25.8503 71.9038 26.4753 72.4621C27.1086 73.0205 27.5919 73.7288 27.9253 74.6038C28.3086 75.4955 28.4169 76.2955 28.2419 76.9955C28.1669 77.3205 28.042 77.5871 27.867 77.7788C27.6753 77.9955 27.4253 78.1371 27.1086 78.1871C26.1419 78.3037 25.117 78.2287 24.0503 77.9704C22.9753 77.7204 21.8253 77.2371 20.6087 76.5288C17.117 74.5121 14.1419 71.3871 11.6753 67.1371C9.21692 62.8954 7.98364 58.7705 7.98364 54.7621V28.6871C6.60031 27.8871 5.40862 26.6287 4.41695 24.9287C3.43362 23.2204 2.93359 21.5704 2.93359 19.9787V14.1871C2.93359 12.5871 3.43362 11.5121 4.41695 10.9454C5.40862 10.3871 6.60031 10.5037 7.98364 11.3037L24.6503 20.9204L29.7003 23.8371L33.2336 25.8788C34.6169 26.6788 35.8086 27.9371 36.8003 29.6454C37.7836 31.3454 38.2837 32.9954 38.2837 34.5871Z" fill="#285D2D"/>
  <path d="M49.9002 37.0703V43.6203C49.9002 45.212 49.4002 46.2953 48.4169 46.8536L41.4585 50.337L37.5335 52.2953L31.7502 55.187C32.7336 54.6286 33.2335 53.5453 33.2335 51.9536V43.262C34.6168 44.062 35.8085 44.187 36.8002 43.6203L38.6918 42.6703L43.8252 40.112L44.8502 39.5953L49.9002 37.0703Z" fill="#162C15"/>
  <path d="M70.0919 71.212C70.0919 72.4703 69.9502 73.587 69.6502 74.5786C69.3585 75.5703 68.9169 76.4203 68.3252 77.1453L64.1752 79.2203H64.1668L51.6586 85.4786C52.2502 84.7536 52.6918 83.9036 52.9835 82.912C53.2835 81.9203 53.4252 80.8036 53.4252 79.5453C53.4252 75.9286 52.3252 72.212 50.1168 68.4036C47.9085 64.587 45.2252 61.7703 42.0669 59.9536C41.3336 59.5286 40.6252 59.187 39.9418 58.9286C37.9835 58.1953 36.2418 58.137 34.7085 58.762L40.7668 55.7286L44.6168 53.8036L50.6835 50.7703C52.8918 49.512 55.5752 49.7953 58.7336 51.6203C61.8919 53.437 64.5752 56.2536 66.7835 60.0703C68.9918 63.8786 70.0919 67.5953 70.0919 71.212Z" fill="#162C15"/>
  <path d="M54.9503 26.253V32.0531C54.9503 33.6448 54.4503 34.7198 53.467 35.2865L49.9003 37.0698L44.8503 39.5948L43.8253 40.1114L38.692 42.6698L36.8003 43.6198C37.442 43.2531 37.8753 42.6698 38.1003 41.8698C38.2253 41.4365 38.2837 40.9448 38.2837 40.3865V34.5864C38.2837 32.9947 37.7837 31.3447 36.8003 29.6447C35.8087 27.9364 34.6169 26.6781 33.2336 25.8781L29.7003 23.8364L24.6503 20.9197L7.98368 11.303C6.60035 10.503 5.40866 10.3864 4.41699 10.9447L21.0837 2.61141C22.0753 2.05308 23.267 2.16974 24.6503 2.96974L49.9003 17.5448C51.2836 18.3448 52.4753 19.603 53.467 21.3114C54.4503 23.0114 54.9503 24.6614 54.9503 26.253Z" fill="#162C15"/>
</svg>