<svg width="26" height="24" viewBox="0 0 26 24" fill="none"
    xmlns="http://www.w3.org/2000/svg">
    <g clip-path="url(#clip0_5438_5314)">
        <path d="M9.64697 21.4336C10.1853 22.5697 11.3791 23.3708 12.7879 23.3708C14.1968 23.3708 15.3906 22.5697 15.929 21.4336C14.9355 21.4792 13.9024 21.5099 12.7879 21.5099C11.6735 21.5099 10.6404 21.4792 9.64697 21.4336Z" fill="#3E4954"/>
        <path d="M23.7229 16.5088C22.4161 14.9623 20.223 11.9225 20.223 8.94876C20.223 6.00013 18.2043 3.34736 15.2656 2.37224C15.2299 1.11798 14.1314 0.109375 12.7879 0.109375C11.4434 0.109375 10.3459 1.11798 10.3102 2.37224C7.37045 3.34736 5.35182 6.00013 5.35182 8.94876C5.35182 11.9235 3.15968 14.9623 1.85193 16.5088C1.41569 17.0251 1.28081 17.7072 1.49203 18.3334C1.69827 18.9447 2.21182 19.4183 2.8662 19.5988C4.01236 19.9161 5.89117 20.2734 8.75658 20.4558C9.99689 20.5339 11.3304 20.5795 12.7879 20.5795C14.2444 20.5795 15.578 20.5339 16.8183 20.4558C19.6846 20.2734 21.5625 19.9161 22.7096 19.5988C23.364 19.4183 23.8766 18.9447 24.0828 18.3334C24.294 17.7072 24.1581 17.0251 23.7229 16.5088Z" fill="#3E4954"/>
    </g>
    <defs>
        <clipPath id="clip0_5438_5314">
            <rect width="24.7869" height="23.2615" fill="white" transform="translate(0.393066 0.105469)"/>
        </clipPath>
    </defs>
</svg>