<svg width="48" height="48" viewBox="0 0 48 48" fill="none" xmlns="http://www.w3.org/2000/svg">
<rect width="48" height="48" fill="#9D9D9D"/>
<g id="Frame 1686562211" clip-path="url(#clip0_4036_222)">
<rect width="1920" height="1604" transform="translate(-523 -634)" fill="#FCFFFC"/>
<g id="BACKGROUND">
<path id="contentBackground" d="M-402 -540H1397V970H-364C-384.987 970 -402 952.987 -402 932V-540Z" fill="#FCFFFC"/>
</g>
<g id="Frame 1686562016">
<g id="Frame 1686562209">
<rect width="1031" height="618" transform="translate(-350 -481)" fill="white"/>
<g id="Frame 1686562191">
<g id="Frame 1686561875">
<g id="Group 48095527">
<rect id="Rectangle 34624385" x="-30.5" y="-22.5" width="294" height="161" rx="17.5" fill-opacity="" stroke="#2BC155" stroke-width="3" stroke-linejoin="round" stroke-dasharray="6 6"/>
<g id="Frame 1686561874">
<g id="camera">
<path id="Vector" d="M46 38C46 39.0609 45.5786 40.0783 44.8284 40.8284C44.0783 41.5786 43.0609 42 42 42H6C4.93913 42 3.92172 41.5786 3.17157 40.8284C2.42143 40.0783 2 39.0609 2 38V16C2 14.9391 2.42143 13.9217 3.17157 13.1716C3.92172 12.4214 4.93913 12 6 12H14L18 6H30L34 12H42C43.0609 12 44.0783 12.4214 44.8284 13.1716C45.5786 13.9217 46 14.9391 46 16V38Z" stroke="currentColor" stroke-width="4" stroke-linecap="round" stroke-linejoin="round"/>
<path id="Vector_2" d="M24 34C28.4183 34 32 30.4183 32 26C32 21.5817 28.4183 18 24 18C19.5817 18 16 21.5817 16 26C16 30.4183 19.5817 34 24 34Z" stroke="currentColor" stroke-width="4" stroke-linecap="round" stroke-linejoin="round"/>
</g>
</g>
</g>
</g>
</g>
</g>
</g>
</g>
<defs>
<clipPath id="clip0_4036_222">
<rect width="1920" height="1604" fill="white" transform="translate(-523 -634)"/>
</clipPath>
</defs>
</svg>
