<svg width="28" height="28" viewBox="0 0 28 28" fill="none" xmlns="http://www.w3.org/2000/svg">
  <g clip-path="url(#clip0_4747_3380)">
    <path d="M22.5678 26.511C22.8079 26.511 23.0448 26.6024 23.225 26.7764C24.3769 27.8888 26.0573 28.2592 27.551 27.7956C26.5897 25.7928 26.4565 23.4983 27.2015 21.3739C28.126 18.7306 28.3577 16.0813 27.3055 13.4242C26.3811 11.0901 24.5972 9.15078 22.3395 8.04492C22.4784 8.7854 22.5484 9.53987 22.5484 10.3023C22.5485 13.5386 21.304 16.5824 19.0444 18.8731C16.7846 21.1642 13.7554 22.4524 10.5148 22.5005C9.9127 22.51 9.31334 22.4745 8.72076 22.3964C10.5017 25.5182 13.8606 27.5514 17.5516 27.6062C19.1663 27.6311 20.7166 27.2928 22.1604 26.6033C22.2904 26.5412 22.4297 26.511 22.5678 26.511Z" fill="white"/>
    <path d="M10.541 -0.00770831C4.79225 -0.121857 0.0134653 4.52878 -0.000396074 10.2763C-0.00379211 11.6805 0.270317 13.042 0.814376 14.323C0.822277 14.3417 0.829624 14.3605 0.836277 14.3796C1.58126 16.5041 1.44812 18.7985 0.486693 20.8014C1.9806 21.2647 3.66074 20.8946 4.81276 19.7821C5.09657 19.5079 5.52122 19.4389 5.87732 19.6091C7.32091 20.2986 8.87144 20.6379 10.486 20.612C16.1898 20.5273 20.6576 15.9985 20.6576 10.3016C20.6576 4.72914 16.1193 0.10443 10.541 -0.00770831ZM4.819 11.8416C3.99307 11.8416 3.32349 11.1732 3.32349 10.3486C3.32349 9.52407 3.99307 8.85561 4.819 8.85561C5.64493 8.85561 6.3145 9.52407 6.3145 10.3486C6.31444 11.1732 5.64493 11.8416 4.819 11.8416ZM10.3286 11.8416C9.50269 11.8416 8.83312 11.1732 8.83312 10.3486C8.83312 9.52407 9.50269 8.85561 10.3286 8.85561C11.1546 8.85561 11.8241 9.52407 11.8241 10.3486C11.8241 11.1732 11.1546 11.8416 10.3286 11.8416ZM15.8383 11.8416C15.0124 11.8416 14.3428 11.1732 14.3428 10.3486C14.3428 9.52407 15.0124 8.85561 15.8383 8.85561C16.6642 8.85561 17.3338 9.52407 17.3338 10.3486C17.3338 11.1732 16.6642 11.8416 15.8383 11.8416Z" fill="#285D2D"/>
  </g>
  <defs>
    <clipPath id="clip0_4747_3380">
      <rect width="28" height="28" fill="white" transform="translate(0 -0.00976562)"/>
    </clipPath>
  </defs>
</svg>