<svg width="14" height="14" viewBox="0 0 14 14" fill="none" xmlns="http://www.w3.org/2000/svg">
<g clip-path="url(#clip0_5438_5964)">
<path d="M6.99984 12.8346C3.77809 12.8346 1.1665 10.2231 1.1665 7.0013C1.1665 3.77955 3.77809 1.16797 6.99984 1.16797C10.2216 1.16797 12.8332 3.77955 12.8332 7.0013C12.8332 10.2231 10.2216 12.8346 6.99984 12.8346ZM6.99984 11.668C8.23751 11.668 9.4245 11.1763 10.2997 10.3011C11.1748 9.42596 11.6665 8.23898 11.6665 7.0013C11.6665 5.76363 11.1748 4.57664 10.2997 3.70147C9.4245 2.8263 8.23751 2.33464 6.99984 2.33464C5.76216 2.33464 4.57518 2.8263 3.70001 3.70147C2.82484 4.57664 2.33317 5.76363 2.33317 7.0013C2.33317 8.23898 2.82484 9.42596 3.70001 10.3011C4.57518 11.1763 5.76216 11.668 6.99984 11.668ZM7.58317 7.0013H9.9165V8.16797H6.4165V4.08464H7.58317V7.0013Z" fill="#5B616E"/>
</g>
<defs>
<clipPath id="clip0_5438_5964">
<rect width="14" height="14" fill="white"/>
</clipPath>
</defs>
</svg>
