<svg id='img' fill="currentColor" xmlns="http://www.w3.org/2000/svg">
<path fill-rule="evenodd" clip-rule="evenodd" d="M9.99999 8.65V1.5C9.99999 1.23478 9.89464 0.98043 9.7071 0.792893C9.51956 0.605357 9.26521 0.5 8.99999 0.5C8.73478 0.5 8.48042 0.605357 8.29289 0.792893C8.10535 0.98043 7.99999 1.23478 7.99999 1.5V8.65L5.77999 5.874C5.69954 5.7669 5.59839 5.67706 5.48254 5.60981C5.3667 5.54256 5.23853 5.49926 5.10563 5.4825C4.97273 5.46573 4.83782 5.47584 4.70891 5.51221C4.57999 5.54859 4.4597 5.61049 4.35516 5.69425C4.25063 5.77801 4.16399 5.88192 4.10039 5.99981C4.03679 6.11769 3.99752 6.24716 3.98491 6.38051C3.9723 6.51387 3.98661 6.6484 4.027 6.77611C4.06738 6.90383 4.13301 7.02213 4.21999 7.124L8.21999 12.124C8.3137 12.2408 8.43243 12.3351 8.56743 12.3998C8.70243 12.4646 8.85026 12.4982 8.99999 12.4982C9.14973 12.4982 9.29755 12.4646 9.43256 12.3998C9.56756 12.3351 9.68629 12.2408 9.77999 12.124L13.78 7.124C13.867 7.02213 13.9326 6.90383 13.973 6.77611C14.0134 6.6484 14.0277 6.51387 14.0151 6.38051C14.0025 6.24716 13.9632 6.11769 13.8996 5.99981C13.836 5.88192 13.7494 5.77801 13.6448 5.69425C13.5403 5.61049 13.42 5.54859 13.2911 5.51221C13.1622 5.47584 13.0273 5.46573 12.8944 5.4825C12.7615 5.49926 12.6333 5.54256 12.5174 5.60981C12.4016 5.67706 12.3004 5.7669 12.22 5.874L9.99999 8.65Z" fill="currentColor"/>
<path fill-rule="evenodd" clip-rule="evenodd" d="M6.657 13.374L4.358 10.5H2C1.46957 10.5 0.960859 10.7107 0.585786 11.0858C0.210714 11.4609 0 11.9696 0 12.5V16.5C0 17.0304 0.210714 17.5391 0.585786 17.9142C0.960859 18.2893 1.46957 18.5 2 18.5H16C16.5304 18.5 17.0391 18.2893 17.4142 17.9142C17.7893 17.5391 18 17.0304 18 16.5V12.5C18 11.9696 17.7893 11.4609 17.4142 11.0858C17.0391 10.7107 16.5304 10.5 16 10.5H13.642L11.342 13.374C11.0609 13.7253 10.7045 14.0089 10.299 14.2037C9.8935 14.3986 9.44938 14.4998 8.9995 14.4998C8.54962 14.4998 8.1055 14.3986 7.70001 14.2037C7.29452 14.0089 6.93806 13.7253 6.657 13.374ZM14 13.5C13.7348 13.5 13.4804 13.6054 13.2929 13.7929C13.1054 13.9804 13 14.2348 13 14.5C13 14.7652 13.1054 15.0196 13.2929 15.2071C13.4804 15.3946 13.7348 15.5 14 15.5H14.01C14.2752 15.5 14.5296 15.3946 14.7171 15.2071C14.9046 15.0196 15.01 14.7652 15.01 14.5C15.01 14.2348 14.9046 13.9804 14.7171 13.7929C14.5296 13.6054 14.2752 13.5 14.01 13.5H14Z" fill="currentColor"/>
</svg>
