<svg width="30" height="29" viewBox="0 0 30 29" fill="none" xmlns="http://www.w3.org/2000/svg">
<path d="M17.5996 2.59766H7.99961C7.36309 2.59766 6.75264 2.85051 6.30255 3.3006C5.85247 3.75069 5.59961 4.36114 5.59961 4.99766V24.1977C5.59961 24.8342 5.85247 25.4446 6.30255 25.8947C6.75264 26.3448 7.36309 26.5977 7.99961 26.5977H22.3996C23.0361 26.5977 23.6466 26.3448 24.0967 25.8947C24.5468 25.4446 24.7996 24.8342 24.7996 24.1977V9.79766L17.5996 2.59766Z" fill="white" stroke="#202020" stroke-width="2.4" stroke-linecap="round" stroke-linejoin="round"/>
<path d="M17.5996 2.59766V9.79766H24.7996" fill="white"/>
<path d="M17.5996 2.59766V9.79766H24.7996" stroke="#202020" stroke-width="2.4" stroke-linecap="round" stroke-linejoin="round"/>
<path d="M19.9999 15.7969H10.3999" stroke="#202020" stroke-width="2.4" stroke-linecap="round" stroke-linejoin="round"/>
<path d="M19.9999 20.5977H10.3999" stroke="#202020" stroke-width="2.4" stroke-linecap="round" stroke-linejoin="round"/>
<path d="M12.7999 11H11.5999H10.3999" fill="white"/>
<path d="M12.7999 11H11.5999H10.3999" stroke="#202020" stroke-width="2.4" stroke-linecap="round" stroke-linejoin="round"/>
</svg>
