<svg width="29" height="19" viewBox="0 0 29 19" fill="none" xmlns="http://www.w3.org/2000/svg">
  <path d="M22.5 18.501H1.50001C0.671548 18.501 0 17.8294 0 17.001C0 16.1726 0.671548 15.501 1.50001 15.501H22.5C23.3285 15.501 24.0001 16.1726 24.0001 17.001C24 17.8294 23.3285 18.501 22.5 18.501Z" fill="#285D2D"/>
  <path d="M27.5 11.0009H6.50001C5.67155 11.0009 5 10.3294 5 9.50099C5 8.67258 5.67155 8.00098 6.50001 8.00098H27.5C28.3285 8.00098 29.0001 8.67253 29.0001 9.50099C29.0001 10.3295 28.3285 11.0009 27.5 11.0009Z" fill="#285D2D"/>
  <path d="M22.5 3.501H1.50001C0.671548 3.501 0 2.82945 0 2.00099C0 1.17252 0.671548 0.500977 1.50001 0.500977H22.5C23.3285 0.500977 24.0001 1.17252 24.0001 2.00099C24.0001 2.82945 23.3285 3.501 22.5 3.501Z" fill="#285D2D"/>
</svg>