<svg width="28" height="28" viewBox="0 0 28 28" fill="none" xmlns="http://www.w3.org/2000/svg">
  <path d="M25.2753 11.962L16.3242 4.00671C15.6836 3.43747 14.8564 3.12305 13.9994 3.12305C13.1424 3.12305 12.3152 3.43747 11.6746 4.00671L2.72459 11.962C2.54823 12.1194 2.4238 12.3266 2.36776 12.5563C2.31172 12.786 2.3267 13.0272 2.41073 13.2482C2.49476 13.4692 2.64388 13.6594 2.83837 13.7938C3.03286 13.9282 3.26356 14.0004 3.49996 14.0008H5.83329V22.1675C5.83431 23.0955 6.20339 23.9851 6.85954 24.6413C7.5157 25.2974 8.40535 25.6665 9.33329 25.6675H10.5V18.6675C10.5 14.0428 17.5 14.0407 17.5 18.6675V25.6675H18.6666C19.5946 25.6665 20.4842 25.2974 21.1404 24.6413C21.7965 23.9851 22.1656 23.0955 22.1666 22.1675V14.0008H24.5C24.7364 14.0004 24.9671 13.9282 25.1615 13.7938C25.356 13.6594 25.5052 13.4692 25.5892 13.2482C25.6732 13.0272 25.6882 12.786 25.6322 12.5563C25.5761 12.3266 25.4517 12.1194 25.2753 11.962Z" fill="#285D2D"/>
</svg>