<svg width="100" height="101" viewBox="0 0 100 101" fill="none" xmlns="http://www.w3.org/2000/svg">
  <g clip-path="url(#clip0_4515_1697)">
    <path d="M50 0.5V9.5C58 9.5 54.6016 12.5 62 12.5H66V4.5H62C54.6016 4.5 58 0.5 50 0.5ZM50 14.5C36.3906 14.5 25.1719 25.1406 24.125 38.5H24C23.9375 38.5 23.875 38.5 23.8125 38.5C23.75 38.5 23.6875 38.5 23.625 38.5C22.5234 38.6016 21.7109 39.5859 21.8125 40.6875C21.9141 41.7891 22.8984 42.6016 24 42.5V52.5H28V42.5H32V52.5H36V42.5H40V52.5H44V42.5H48V52.5H52V42.5H56V52.5H60V42.5H64V52.5H68V42.5H72V52.5H76V42.5C76.7188 42.5078 77.3906 42.1328 77.7578 41.5078C78.1172 40.8828 78.1172 40.1172 77.7578 39.4922C77.3906 38.8672 76.7188 38.4922 76 38.5H75.875C74.8281 25.1406 63.6094 14.5 50 14.5ZM50 18.5C61.3984 18.5 70.5 27.3672 71.5625 38.5H28.4375C29.5 27.3672 38.6016 18.5 50 18.5ZM0 54.5V100.5H100V54.5H0ZM4 58.5H96V96.5H4V58.5ZM10 64.5V70.5H18V64.5H10ZM24 64.5V70.5H32V64.5H24ZM38 64.5V70.5H46V64.5H38ZM52 64.5V70.5H60V64.5H52ZM66 64.5V70.5H74V64.5H66ZM80 64.5V70.5H88V64.5H80ZM10 74.5V80.5H18V74.5H10ZM24 74.5V80.5H32V74.5H24ZM38 74.5V80.5H46V74.5H38ZM52 74.5V80.5H60V74.5H52ZM66 74.5V80.5H74V74.5H66ZM80 74.5V80.5H88V74.5H80ZM10 84.5V90.5H18V84.5H10ZM24 84.5V90.5H32V84.5H24ZM38 84.5V90.5H46V84.5H38ZM52 84.5V90.5H60V84.5H52ZM66 84.5V90.5H74V84.5H66ZM80 84.5V90.5H88V84.5H80Z" fill="#5B616E"/>
  </g>
  <defs>
    <clipPath id="clip0_4515_1697">
      <rect width="100" height="100" fill="white" transform="translate(0 0.5)"/>
    </clipPath>
  </defs>
</svg>