<svg width="28" height="28" viewBox="0 0 28 28" fill="none" xmlns="http://www.w3.org/2000/svg">
  <g clip-path="url(#clip0_4747_3392)">
    <path d="M19.621 4.50586H3.54242C2.95871 4.50586 2.48395 4.98062 2.48395 5.56433V26.9313C2.48395 27.515 2.95871 27.9897 3.54242 27.9897H19.621C20.2041 27.9897 20.6789 27.515 20.6789 26.9313V5.56433C20.6789 4.98062 20.2041 4.50586 19.621 4.50586ZM16.0323 19.4091H7.45169C6.95266 19.4091 6.54846 19.0049 6.54846 18.5059C6.54846 18.0068 6.95266 17.6026 7.45169 17.6026H16.0323C16.5314 17.6026 16.9356 18.0068 16.9356 18.5059C16.9356 19.0049 16.5314 19.4091 16.0323 19.4091ZM16.0323 15.7962H7.45169C6.95266 15.7962 6.54846 15.392 6.54846 14.893C6.54846 14.3939 6.95266 13.9897 7.45169 13.9897H16.0323C16.5314 13.9897 16.9356 14.3939 16.9356 14.893C16.9356 15.392 16.5314 15.7962 16.0323 15.7962ZM16.0323 12.1833H7.45169C6.95266 12.1833 6.54846 11.7791 6.54846 11.2801C6.54846 10.781 6.95266 10.3768 7.45169 10.3768H16.0323C16.5314 10.3768 16.9356 10.781 16.9356 11.2801C16.9356 11.7791 16.5314 12.1833 16.0323 12.1833Z" fill="#285D2D"/>
    <path d="M25.5161 2.69991V22.5709C25.5161 23.9347 24.4187 25.2806 22.4853 25.2806V5.56483C22.4853 3.98475 21.2004 2.69991 19.6209 2.69991H5.51477C5.51477 1.20564 6.80243 -0.00976562 8.38477 -0.00976562H22.6461C24.2285 -0.00976562 25.5161 1.20564 25.5161 2.69991Z" fill="white"/>
  </g>
  <defs>
    <clipPath id="clip0_4747_3392">
      <rect width="28" height="28" fill="white" transform="translate(0 -0.00976562)"/>
    </clipPath>
  </defs>
</svg>