<svg width="28" height="28" viewBox="0 0 28 28" fill="none" xmlns="http://www.w3.org/2000/svg">
  <g clip-path="url(#clip0_4747_3374)">
    <path d="M23.7948 12.5947C23.3022 12.5947 22.8395 12.6768 22.4067 12.8484V5.57979H15.153C15.3097 5.14695 15.3918 4.66934 15.3918 4.1768C15.3918 1.86337 13.5186 -0.00976562 11.2052 -0.00976562C8.89177 -0.00976562 7.01863 1.86337 7.01863 4.1768C7.01863 4.66934 7.10072 5.13949 7.25744 5.57979H0.0111694V13.6917C0.749975 13.0201 1.73505 12.6022 2.80968 12.6022C5.12311 12.6022 6.99624 14.4753 6.99624 16.7887C6.99624 19.1022 5.12311 20.9753 2.80968 20.9753C1.73505 20.9753 0.749975 20.5574 0.0111694 19.8858V27.9902H22.4142V20.7216C22.847 20.8858 23.3097 20.9753 23.8022 20.9753C26.1231 20.9753 27.9888 19.1022 27.9888 16.7887C27.9888 14.4753 26.1231 12.5947 23.7948 12.5947Z" fill="white"/>
  </g>
  <defs>
    <clipPath id="clip0_4747_3374">
      <rect width="28" height="28" fill="white" transform="translate(0 -0.00976562)"/>
    </clipPath>
  </defs>
</svg>