<svg width="100" height="101" viewBox="0 0 100 101" fill="none" xmlns="http://www.w3.org/2000/svg">
  <g clip-path="url(#clip0_4515_1791)">
    <path d="M90.523 94.6844L84.925 76.3889L86.0301 67.4633C85.7545 67.8961 85.3357 68.2451 84.8142 68.4184C83.6062 68.8199 82.3015 68.1662 81.9002 66.9582C80.9965 64.2389 80.1238 60.2318 79.5572 57.4111L69.2939 54.5996L69.2974 57.1861L62.7967 74.2586C62.5728 74.8465 62.4748 75.475 62.5088 76.1033L63.6023 96.2443C63.7326 98.642 65.7179 100.499 68.0906 100.499C68.1728 100.499 68.2554 100.497 68.3385 100.492C70.8193 100.358 72.7211 98.2375 72.5865 95.7566L71.5449 76.5686L77.0258 62.1744L77.6207 62.165L75.8783 76.2353C75.8006 76.8629 75.856 77.4998 76.0412 78.1043L81.9197 97.317C82.5123 99.2541 84.2945 100.501 86.2199 100.501C86.6558 100.501 87.0988 100.437 87.5377 100.303C89.9131 99.5752 91.2498 97.0603 90.523 94.6844Z" fill="#4A4E5A"/>
    <path d="M92.3504 9.58077C91.875 8.03468 90.2366 7.16749 88.6903 7.64288C88.0446 7.84152 87.3946 8.01495 86.742 8.17394L84.9053 1.31417C84.7522 0.742884 84.1739 0.395423 83.5979 0.528626L80.1848 1.31788C79.2319 1.53839 78.2413 1.53839 77.2883 1.31788L73.8756 0.52843C73.2993 0.395227 72.7209 0.742298 72.5682 1.31398L70.7315 8.17374C70.0793 8.01456 69.429 7.84132 68.7833 7.64269C67.2379 7.16749 65.5989 8.03449 65.1231 9.58058C64.6471 11.1263 65.5149 12.765 67.0606 13.2407C68.3112 13.6255 69.5737 13.946 70.8438 14.2048C70.7956 14.5607 70.7688 14.9234 70.7692 15.2925C70.775 19.6759 74.3333 23.2245 78.7165 23.2189C83.0997 23.2132 86.6485 19.655 86.6428 15.2716C86.6424 14.9138 86.6159 14.5622 86.5696 14.2169C87.8598 13.956 89.1422 13.6319 90.4127 13.2409C91.9584 12.7653 92.826 11.1267 92.3504 9.58077Z" fill="#4A4E5A"/>
    <path d="M97.7441 35.1816L84.1099 29.1424L86.6872 29.6211C86.4276 29.1461 86.0972 28.7076 85.7028 28.3221C84.6446 27.2881 83.2157 26.7228 81.7366 26.7531L74.655 26.8984C71.6741 26.9023 69.2608 29.4902 69.2651 32.6783L69.2898 51.1967L78.912 53.8326C78.8603 53.5219 78.5384 50.3789 81.6524 48.2303C82.836 47.4137 85.6091 47.0023 87.3835 47.7437V40.2959L81.2396 35.6224L92.0157 40.3957C91.6505 41.6109 89.0528 50.2535 88.6775 51.5029C88.621 51.6908 88.5853 51.8793 88.5606 52.0676C87.755 51.6119 87.1817 51.3279 86.3745 50.9496C83.7706 49.7703 81.9808 51.5711 81.9485 53.3523C81.9454 53.5713 82.4372 59.5988 83.213 64.3334C83.2921 64.8166 83.748 65.1441 84.2312 65.065C84.6161 65.0019 84.9023 64.6982 84.9628 64.3334C85.2317 62.6916 85.4433 61.1189 85.6253 59.5426C86.4868 59.989 87.5189 59.6508 87.9673 58.8258C88.3972 58.0342 88.1526 57.0582 87.4298 56.5556C88.7659 57.093 89.8651 56.5293 90.3558 55.6222C90.5728 55.742 90.8044 55.842 91.0513 55.9164C92.9067 56.474 94.897 55.4308 95.4648 53.5429L99.7028 39.442C100.217 37.7308 99.3773 35.9049 97.7441 35.1816Z" fill="#4A4E5A"/>
    <path d="M27.3411 10.126C26.8685 8.58944 25.2399 7.72714 23.703 8.1998C23.0612 8.39726 22.4149 8.56933 21.7663 8.72792L19.9405 1.90878C19.7884 1.34062 19.2136 0.995499 18.6407 1.12812L15.2483 1.91269C14.3011 2.13183 13.3165 2.13183 12.3692 1.91269L8.97685 1.12792C8.404 0.995304 7.8292 1.34081 7.67705 1.90858L5.85146 8.72733C5.20303 8.56913 4.55654 8.39687 3.91474 8.19921C2.37783 7.72616 0.749315 8.58886 0.276659 10.1254C-0.195998 11.6621 0.666307 13.2908 2.20283 13.7635C3.46533 14.1519 4.74014 14.4742 6.02295 14.7336C5.97666 15.0769 5.95029 15.4266 5.9499 15.7822C5.94424 20.1392 9.47178 23.6762 13.8288 23.682C18.1858 23.6879 21.7228 20.1601 21.7286 15.8031C21.729 15.4361 21.7024 15.0756 21.6544 14.7219C22.9169 14.4646 24.1718 14.1461 25.4149 13.7637C26.9515 13.2914 27.814 11.6623 27.3411 10.126Z" fill="#4A4E5A"/>
    <path d="M5.26978 59.9623V96.0297C5.26978 98.4992 7.37778 100.501 9.84731 100.501C12.3168 100.501 14.319 98.4994 14.319 96.0297V62.4416H17.7967V96.0297C17.7967 97.5125 17.3897 98.8992 16.6829 100.088C17.2524 100.351 17.8846 100.501 18.5534 100.501C21.0229 100.501 23.1077 98.4994 23.1077 96.0297V57.873L5.26978 59.9623Z" fill="#4A4E5A"/>
    <path d="M52.8046 26.4574C51.5363 26.3973 48.7304 26.2641 45.8476 26.1275V24.6396C45.8476 24.2316 45.5168 23.9004 45.1084 23.9004H43.5427C43.1345 23.9004 42.8035 24.2312 42.8035 24.6396V25.9832C42.7925 25.9828 42.7816 25.982 42.7707 25.9816C42.7828 25.9775 42.4734 25.9727 42.2666 26.0109C41.1447 26.1881 40.2544 27.0719 40.0732 28.2096C39.9232 29.1447 40.2675 29.7061 40.5812 30.3809L24.3298 32.1723L14.2986 28.9277L21.6349 29.0035C20.6671 27.9777 19.3363 27.343 17.866 27.341L10.9304 27.1988C9.87163 27.1771 8.81499 27.4238 7.90679 27.9686C6.22534 28.9764 5.23921 30.7668 5.23413 32.6619C5.22144 37.5609 5.1853 51.7549 5.17261 56.6787L23.1953 54.5898L23.2107 42.9018L12.1306 35.6305L22.8701 39.1043C23.3371 39.2553 23.8296 39.3072 24.3189 39.2563L43.5591 37.2527C45.3578 37.0656 46.7927 35.5824 46.807 33.7742C46.8105 33.3293 46.7304 32.9096 46.5871 32.523C46.8496 32.5381 47.0751 32.4824 47.283 32.3695C47.916 32.0256 48.1503 31.2338 47.8068 30.6008L47.2609 29.5955C49.6136 29.484 51.7458 29.3828 52.8048 29.3326C53.1992 29.3139 53.5089 28.9898 53.5089 28.5949V27.1947C53.5085 26.8006 53.1986 26.476 52.8046 26.4574Z" fill="#4A4E5A"/>
  </g>
  <defs>
    <clipPath id="clip0_4515_1791">
      <rect width="100" height="100" fill="white" transform="translate(0 0.5)"/>
    </clipPath>
  </defs>
</svg>