<svg width="28" height="28" viewBox="0 0 28 28" fill="none" xmlns="http://www.w3.org/2000/svg">
  <path d="M15.7545 24.4911C8.99147 24.4911 3.50891 19.0086 3.50891 12.2455C3.50891 5.48243 8.99141 0 15.7545 0C22.5175 0 28 5.48249 28 12.2456C28 19.0086 22.5175 24.4911 15.7545 24.4911ZM15.7545 3.49875C10.9237 3.49875 7.00766 7.41481 7.00766 12.2456C7.00766 17.0763 10.9237 20.9924 15.7545 20.9924C20.5852 20.9924 24.5013 17.0763 24.5013 12.2456C24.5013 7.41481 20.5852 3.49875 15.7545 3.49875Z" fill="white"/>
  <path d="M1.75951 27.9889C1.29451 27.9916 0.847591 27.8091 0.517469 27.4816C-0.168521 26.8012 -0.173043 25.6936 0.50734 25.0076C0.510716 25.0043 0.514093 25.0009 0.517469 24.9975L7.09506 18.4199C7.80517 17.7339 8.93693 17.7535 9.62292 18.4636C10.3089 19.1737 10.2893 20.3055 9.57921 20.9915L3.00155 27.4816C2.67143 27.8091 2.22452 27.9916 1.75951 27.9889Z" fill="white"/>
</svg>