<svg id="img" viewBox="0 0 24 25" fill="none" xmlns="http://www.w3.org/2000/svg">
<path d="M15.6599 3.25074L22.0884 9.46503C22.1507 9.525 22.2001 9.59689 22.2339 9.67642C22.2677 9.75595 22.2852 9.84147 22.2852 9.92789C22.2852 10.0143 22.2677 10.0998 22.2339 10.1794C22.2001 10.2589 22.1507 10.3308 22.0884 10.3907L15.6599 16.605C15.6011 16.6629 15.5315 16.7086 15.455 16.7395C15.3785 16.7704 15.2966 16.7859 15.2141 16.785C15.0437 16.785 14.8801 16.7173 14.7596 16.5967C14.639 16.4762 14.5713 16.3127 14.5713 16.1422V12.9365C8.82843 13.1679 6.41129 16.3822 6.30843 16.5193C6.2266 16.627 6.11365 16.707 5.98487 16.7484C5.85609 16.7898 5.7177 16.7906 5.58843 16.7507C5.45949 16.7092 5.34697 16.628 5.26693 16.5187C5.18689 16.4094 5.14342 16.2776 5.14272 16.1422C5.14272 9.26789 10.7913 7.15931 14.5713 6.94503V3.7136C14.5716 3.58717 14.6091 3.46363 14.6793 3.35843C14.7494 3.25324 14.849 3.17106 14.9656 3.12217C15.081 3.07238 15.2086 3.05802 15.3323 3.08092C15.4559 3.10381 15.5699 3.16292 15.6599 3.25074ZM6.64272 3.92789C5.56291 3.92789 4.52732 4.35684 3.76378 5.12038C3.00024 5.88392 2.57129 6.9195 2.57129 7.99931V17.8565C2.57129 18.9363 3.00024 19.9719 3.76378 20.7354C4.52732 21.4989 5.56291 21.9279 6.64272 21.9279H16.4999C17.5797 21.9279 18.6153 21.4989 19.3788 20.7354C20.1423 19.9719 20.5713 18.9363 20.5713 17.8565V17.4279C20.5713 17.2574 20.5036 17.0939 20.383 16.9733C20.2624 16.8528 20.0989 16.785 19.9284 16.785C19.7579 16.785 19.5944 16.8528 19.4739 16.9733C19.3533 17.0939 19.2856 17.2574 19.2856 17.4279V17.8565C19.2856 18.5953 18.9921 19.3038 18.4697 19.8263C17.9472 20.3487 17.2387 20.6422 16.4999 20.6422H6.64272C5.9039 20.6422 5.19534 20.3487 4.67292 19.8263C4.1505 19.3038 3.857 18.5953 3.857 17.8565V7.99931C3.857 7.2605 4.1505 6.55194 4.67292 6.02952C5.19534 5.50709 5.9039 5.2136 6.64272 5.2136H10.4999C10.6704 5.2136 10.8339 5.14587 10.9544 5.02531C11.075 4.90475 11.1427 4.74124 11.1427 4.57074C11.1427 4.40025 11.075 4.23673 10.9544 4.11617C10.8339 3.99561 10.6704 3.92789 10.4999 3.92789H6.64272Z" fill="#FFFEFE"/>
</svg>
