<svg width="100" height="101" viewBox="0 0 100 101" fill="none" xmlns="http://www.w3.org/2000/svg">
  <g clip-path="url(#clip0_4515_1751)">
    <path d="M79.6828 12.963C78.8136 13.8142 76.7635 14.8134 75.7812 15.2509C75.8783 15.0009 75.939 14.749 75.9459 14.5036C76.1646 13.3011 74.6568 9.07201 73.4566 7.66635C73.3138 7.45717 73.0289 7.56205 73.0529 7.81401C73.3914 9.66928 72.6779 13.0781 72.5601 14.323C72.557 14.7413 72.7277 15.3294 72.939 15.9031C71.639 14.4671 69.768 13.6003 67.7635 13.6003C67.3275 13.6003 66.8851 13.6413 66.441 13.7265C64.7084 14.0585 63.2504 15.0054 62.2461 16.2964C62.2461 16.2964 74.9549 17.931 75.425 17.931C75.8898 17.9312 76.3564 17.8591 76.6968 17.6425C77.5488 17.2675 79.5736 14.5118 79.9482 13.1548C80.0199 12.9738 79.8295 12.8421 79.6828 12.963Z" fill="#5B616E"/>
    <path d="M60.8453 19.5742C60.7352 20.3273 60.7451 21.1111 60.8965 21.9012C61.5375 25.2461 64.4644 27.5726 67.7484 27.5726C71.3797 27.5726 74.315 24.8299 74.6998 21.3584L60.8453 19.5742Z" fill="#5B616E"/>
    <path d="M99.3076 21.6236C98.5529 20.6799 97.3674 20.2849 96.2568 20.4926L96.1134 14.4469L97.7646 14.0357C98.0773 13.958 98.2943 13.6734 98.2865 13.3516L98.2283 10.8908C98.2207 10.5742 97.9982 10.3035 97.689 10.2352L96.0051 9.86211L95.9648 8.16817C95.9556 7.78809 95.6404 7.48712 95.2603 7.4963L92.7008 7.55704C92.3207 7.56622 92.0197 7.88165 92.0289 8.26173L92.0461 8.98536L89.2683 8.36993C86.7342 10.5674 86.8162 14.0314 89.4515 16.1066L92.1984 15.4226L92.3808 23.1191L84.7326 29.2355L78.3178 29.5791C77.3324 28.9408 76.1096 28.6658 74.8656 28.9045C73.5582 29.1548 67.5002 30.3158 66.6018 30.4882C64.0424 30.9785 62.3655 33.4509 62.8557 36.0101L63.5766 39.7724L69.233 33.2416L63.9045 44.0335L53.0475 45.4296C51.3139 45.6525 50.0897 47.2384 50.3126 48.972C50.5067 50.4814 51.7923 51.8657 53.8549 51.707L66.3948 50.0943C67.4178 49.9632 68.3608 49.3034 68.8285 48.3566L74.7123 36.4396L71.7877 49.0433C71.4797 50.3706 69.7653 52.7239 66.7817 53.1073L66.1473 53.1888L67.1178 58.2532L62.1723 69.1968C62.0678 69.4286 61.9864 69.6706 61.9301 69.9186L57.6241 88.8579C57.159 90.903 58.4399 92.9379 60.485 93.4026C62.5258 93.8674 64.5641 92.5897 65.0297 90.5416L69.251 71.9753L75.4567 58.2433L77.3949 57.872L75.1568 72.1272C75.0549 72.7764 75.1235 73.4413 75.3551 74.0565L81.7609 91.0401C82.5023 93.0053 84.6949 93.9918 86.6543 93.253C88.6164 92.5129 89.6074 90.3221 88.8672 88.3596L82.8154 72.3145L84.8826 59.2776C85.0607 58.1544 85.0426 57.0091 84.8293 55.8921L80.9834 35.7626L86.082 35.4896C86.7402 35.4544 87.3711 35.2138 87.8859 34.8023L98.8125 26.0642C100.176 24.974 100.397 22.9859 99.3076 21.6236Z" fill="#5B616E"/>
    <path d="M53.0609 85.8928L39.4834 80.4336L43.5019 84.5728C45.2875 86.4119 45.8844 88.9642 45.3094 91.2812L50.1172 93.2144C52.1398 94.0281 54.4377 93.0461 55.25 91.0254C56.0627 89.0039 55.0826 86.7059 53.0609 85.8928Z" fill="#5B616E"/>
    <path d="M41.2023 86.8027L29.675 74.9287C28.2164 73.4264 25.8385 73.325 24.2574 74.6975L14.4936 83.1721L22.157 72.2773C23.5586 70.2848 26.006 69.466 28.2334 70.0397L28.7543 66.1133C29.0656 63.7668 27.4158 61.6121 25.0693 61.3008L17.2893 60.2682C14.9428 59.9569 12.7881 61.6067 12.4768 63.9531L12.2643 65.5533L14.3893 64.802L5.72464 70.9303C5.09359 71.3766 4.63968 72.0309 4.44301 72.7783L0.109029 89.234C-0.353665 90.991 0.695551 92.7902 2.45238 93.2529C4.20883 93.7154 6.00863 92.6666 6.47132 90.9093L10.5002 75.6109L18.1881 70.1733L13.5127 75.9607C13.4744 76.1057 9.60452 90.8011 9.57034 90.9308C10.2969 92.7804 12.3455 93.8365 14.317 93.2796C14.5338 93.2181 27.9592 89.4121 28.2029 89.3431L25.2375 86.2885L19.6654 89.132L26.6115 83.1033L35.5394 92.3C37.0586 93.8646 39.5564 93.8996 41.1193 92.3826C42.683 90.8648 42.7201 88.3666 41.2023 86.8027Z" fill="#5B616E"/>
    <path d="M34.3786 48.1955C34.0094 46.9957 32.737 46.3231 31.5387 46.6918C31.0376 46.8459 30.5331 46.9803 30.027 47.1041L28.602 41.7819C28.4833 41.3385 28.0345 41.069 27.5876 41.1725L24.9395 41.785C24.2003 41.9561 23.4315 41.9561 22.6923 41.785L20.0442 41.1725C19.5972 41.069 19.1485 41.3387 19.0298 41.7819L17.6048 47.1041C17.0985 46.9807 16.594 46.8461 16.0931 46.6918C14.8952 46.3229 13.6224 46.9957 13.2532 48.1955C12.8841 49.3951 13.5571 50.6664 14.7567 51.0354C15.6337 51.3053 16.5189 51.5301 17.4083 51.7201C17.1981 55.0582 19.6052 58.0365 22.9712 58.4832C26.487 58.9498 29.7151 56.4779 30.1817 52.9621C30.2374 52.5422 30.2501 52.127 30.2253 51.7197C31.1143 51.5297 31.9989 51.3049 32.8753 51.0356C34.0743 50.6664 34.7475 49.3951 34.3786 48.1955Z" fill="#5B616E"/>
  </g>
  <defs>
    <clipPath id="clip0_4515_1751">
      <rect width="100" height="100" fill="white" transform="translate(0 0.5)"/>
    </clipPath>
  </defs>
</svg>